<?xml version="1.0" encoding="UTF-8" standalone="no"?>
<!-- Created with Inkscape (http://www.inkscape.org/) -->

<svg
   xmlns:dc="http://purl.org/dc/elements/1.1/"
   xmlns:cc="http://creativecommons.org/ns#"
   xmlns:rdf="http://www.w3.org/1999/02/22-rdf-syntax-ns#"
   xmlns:svg="http://www.w3.org/2000/svg"
   xmlns="http://www.w3.org/2000/svg"
   xmlns:sodipodi="http://sodipodi.sourceforge.net/DTD/sodipodi-0.dtd"
   xmlns:inkscape="http://www.inkscape.org/namespaces/inkscape"
   width="124px"
   height="124px"
   viewBox="0 0 124 124"
   version="1.1"
   id="SVGRoot"
   inkscape:version="0.92.4 (5da689c313, 2019-01-14)"
   sodipodi:docname="main.svg">
  <defs
     id="defs18">
    <inkscape:path-effect
       effect="bspline"
       id="path-effect87"
       is_visible="true"
       weight="33.333333"
       steps="2"
       helper_size="0"
       apply_no_weight="true"
       apply_with_weight="true"
       only_selected="false" />
    <inkscape:path-effect
       effect="bspline"
       id="path-effect83"
       is_visible="true"
       weight="33.333333"
       steps="2"
       helper_size="0"
       apply_no_weight="true"
       apply_with_weight="true"
       only_selected="false" />
    <inkscape:path-effect
       effect="bspline"
       id="path-effect79"
       is_visible="true"
       weight="33.333333"
       steps="2"
       helper_size="0"
       apply_no_weight="true"
       apply_with_weight="true"
       only_selected="false" />
    <inkscape:path-effect
       effect="bspline"
       id="path-effect75"
       is_visible="true"
       weight="33.333333"
       steps="2"
       helper_size="0"
       apply_no_weight="true"
       apply_with_weight="true"
       only_selected="false" />
    <inkscape:path-effect
       effect="bspline"
       id="path-effect71"
       is_visible="true"
       weight="33.333333"
       steps="2"
       helper_size="0"
       apply_no_weight="true"
       apply_with_weight="true"
       only_selected="false" />
    <inkscape:path-effect
       effect="bspline"
       id="path-effect67"
       is_visible="true"
       weight="33.333333"
       steps="2"
       helper_size="0"
       apply_no_weight="true"
       apply_with_weight="true"
       only_selected="false" />
    <inkscape:path-effect
       effect="bspline"
       id="path-effect63"
       is_visible="true"
       weight="33.333333"
       steps="2"
       helper_size="0"
       apply_no_weight="true"
       apply_with_weight="true"
       only_selected="false" />
    <inkscape:path-effect
       effect="bspline"
       id="path-effect59"
       is_visible="true"
       weight="33.333333"
       steps="2"
       helper_size="0"
       apply_no_weight="true"
       apply_with_weight="true"
       only_selected="false" />
    <inkscape:path-effect
       effect="bspline"
       id="path-effect55"
       is_visible="true"
       weight="33.333333"
       steps="2"
       helper_size="0"
       apply_no_weight="true"
       apply_with_weight="true"
       only_selected="false" />
    <inkscape:path-effect
       effect="bspline"
       id="path-effect41"
       is_visible="true"
       weight="33.333333"
       steps="2"
       helper_size="0"
       apply_no_weight="true"
       apply_with_weight="true"
       only_selected="false" />
  </defs>
  <sodipodi:namedview
     id="base"
     pagecolor="#ffffff"
     bordercolor="#666666"
     borderopacity="1.0"
     inkscape:pageopacity="0.0"
     inkscape:pageshadow="2"
     inkscape:zoom="5.6568543"
     inkscape:cx="69.463805"
     inkscape:cy="22.851056"
     inkscape:document-units="px"
     inkscape:current-layer="layer4"
     showgrid="false"
     inkscape:window-width="1366"
     inkscape:window-height="705"
     inkscape:window-x="-8"
     inkscape:window-y="-8"
     inkscape:window-maximized="1"
     inkscape:grid-bbox="true">
    <inkscape:grid
       type="xygrid"
       id="grid40" />
    <sodipodi:guide
       position="0,0"
       orientation="0,124"
       id="guide3745"
       inkscape:locked="false" />
    <sodipodi:guide
       position="124,0"
       orientation="-124,0"
       id="guide3747"
       inkscape:locked="false" />
    <sodipodi:guide
       position="124,124"
       orientation="0,-124"
       id="guide3749"
       inkscape:locked="false" />
    <sodipodi:guide
       position="0,124"
       orientation="124,0"
       id="guide3751"
       inkscape:locked="false" />
  </sodipodi:namedview>
  <metadata
     id="metadata21">
    <rdf:RDF>
      <cc:Work
         rdf:about="">
        <dc:format>image/svg+xml</dc:format>
        <dc:type
           rdf:resource="http://purl.org/dc/dcmitype/StillImage" />
        <dc:title></dc:title>
      </cc:Work>
    </rdf:RDF>
    <rdf:RDF>
      <cc:Work
         rdf:about="">
        <dc:title />
      </cc:Work>
    </rdf:RDF>
  </metadata>
  <g
     inkscape:groupmode="layer"
     id="layer2"
     inkscape:label="back"
     sodipodi:insensitive="true">
    <rect
       style="fill:#ffe680"
       id="rect121"
       width="124"
       height="124"
       x="0"
       y="0" />
  </g>
  <g
     inkscape:label="Layer 1"
     inkscape:groupmode="layer"
     id="layer1"
     sodipodi:insensitive="true"
     style="display:none">
    <path
       style="fill:none;stroke:#000000;stroke-width:1px;stroke-linecap:butt;stroke-linejoin:miter;stroke-opacity:1"
       d="m 8.7457234,37.347996 v 7.023438 L 49.191037,87.238621 c -0.01165,-0.838659 14.90764,0.07427 14.90764,0.07427 -0.59558,-0.892895 -6.38525,-3.361111 -8.208496,-4.86921 C 53.106208,80.140917 50.696599,77.08786 50.696599,77.08786 50.36593,73.92035 49.269237,68.011736 49.404592,64.914682 51.006761,28.256266 60.690152,-0.76453116 105.37853,13.613618 79.568514,40.830908 65.080682,66.803614 114.09728,88.691744"
       id="path33"
       inkscape:connector-curvature="0"
       sodipodi:nodetypes="cccsssscc" />
    <path
       transform="translate(-4.8167763,-3.581691)"
       style="fill:none;stroke:#000000;stroke-width:1px;stroke-linecap:butt;stroke-linejoin:miter;stroke-opacity:1"
       d="m 13.5625,40.929686 c 4.504564,4.341657 9.024448,8.698081 13.060817,13.014768 4.03637,4.316687 7.581311,8.583898 11.340296,12.707256 3.758984,4.123357 7.720923,8.090309 11.684825,12.059225 -1.138381,-8.812666 -2.18288,-16.898562 -1.439846,-28.019684 0.743034,-11.121122 3.807908,-25.443336 6.807459,-30.021177 2.999551,-4.57784 10.94688,-6.41412 17.39952,-7.013947 6.45264,-0.599828 13.259085,-0.390817 20.066498,-0.181776"
       id="path39"
       inkscape:connector-curvature="0"
       inkscape:path-effect="#path-effect41"
       inkscape:original-d="m 13.5625,40.929686 c 4.505545,4.340639 9.025429,8.697063 13.543442,13.053647 3.554828,4.276908 7.099769,8.544119 10.650791,12.820853 3.966865,3.969882 11.891705,11.906749 11.891705,11.906749 0,0 -2.181769,-16.898706 -3.415142,-26.437999 2.719082,-12.702646 5.783956,-27.02486 7.53233,-35.198719 4.249807,-0.982713 12.197136,-2.818992 18.294205,-4.226989 6.808412,0.208041 20.422238,0.627123 20.422238,0.627123"
       sodipodi:nodetypes="cccccscc" />
    <path
       transform="translate(-4.8167763,-3.581691)"
       style="fill:none;stroke:#000000;stroke-width:1px;stroke-linecap:butt;stroke-linejoin:miter;stroke-opacity:1"
       d="m 78.953127,15.015623 c 3.957083,2.014611 7.914108,4.029193 12.233653,5.56316 4.319546,1.533966 8.9996,2.58688 11.05784,3.073114 2.05824,0.486233 1.4932,0.405513 0.92726,0.324664"
       id="path53"
       inkscape:connector-curvature="0"
       inkscape:path-effect="#path-effect55"
       inkscape:original-d="m 78.953127,15.015623 c 3.957693,2.013413 7.914718,4.027995 11.871073,6.043745 4.682388,1.052215 9.36244,2.10513 14.04299,3.159381 -0.56417,-0.08174 -1.12921,-0.162459 -1.69531,-0.242188"
       sodipodi:nodetypes="cccc" />
    <path
       style="fill:none;stroke:#000000;stroke-width:1px;stroke-linecap:butt;stroke-linejoin:miter;stroke-opacity:1"
       d="m 69.023439,22.039061 c 4.670572,2.704116 9.341191,5.408259 13.983703,7.224792 4.642513,1.816533 9.254896,2.745031 13.867859,3.673646"
       id="path57"
       inkscape:connector-curvature="0"
       inkscape:path-effect="#path-effect59"
       inkscape:original-d="m 69.023439,22.039061 c 4.671256,2.702934 9.341875,5.407077 14.011855,8.112429 4.614593,0.927742 9.226976,1.85624 13.839707,2.786009"
       transform="translate(-3.3636513,-5.761378)"
       sodipodi:nodetypes="ccc" />
    <path
       style="fill:none;stroke:#000000;stroke-width:1px;stroke-linecap:butt;stroke-linejoin:miter;stroke-opacity:1"
       d="m 61.031251,32.210936 c 4.654411,2.743712 9.308858,5.487446 14.39546,7.142471 5.086602,1.655026 10.603017,2.221084 16.120165,2.787217"
       id="path61"
       inkscape:connector-curvature="0"
       inkscape:path-effect="#path-effect63"
       inkscape:original-d="m 61.031251,32.210936 c 4.655106,2.742533 9.309553,5.486267 13.963342,8.231202 5.518832,0.565204 11.035247,1.131262 16.552283,1.698486"
       transform="translate(-2.6370883,-7.456691)"
       sodipodi:nodetypes="ccc" />
    <path
       style="fill:none;stroke:#000000;stroke-width:1px;stroke-linecap:butt;stroke-linejoin:miter;stroke-opacity:1"
       d="m 58.609376,43.351561 c 4.253712,2.681663 8.491585,5.353342 13.25422,7.008025 4.762636,1.654683 10.040186,2.287803 15.323905,2.921663"
       id="path65"
       inkscape:connector-curvature="0"
       inkscape:path-effect="#path-effect67"
       inkscape:original-d="m 58.609376,43.351561 c 4.254428,2.680527 8.492301,5.352206 12.736093,8.029203 5.280892,0.632427 10.558442,1.265546 15.842032,1.900485"
       transform="matrix(1.0336069,0,0,1.0221823,-5.8135383,-11.313615)"
       sodipodi:nodetypes="ccc" />
    <path
       style="fill:none;stroke:#000000;stroke-width:1px;stroke-linecap:butt;stroke-linejoin:miter;stroke-opacity:1"
       d="m 55.703126,52.312499 c 4.336089,2.575584 8.672277,5.151227 13.758972,6.765919 5.086694,1.614692 10.921314,2.268096 16.756653,2.921581"
       id="path69"
       inkscape:connector-curvature="0"
       inkscape:path-effect="#path-effect71"
       inkscape:original-d="m 55.703126,52.312499 c 4.336789,2.574406 8.672977,5.150049 13.008564,7.726929 5.837225,0.652584 11.671845,1.305988 17.507061,1.960571"
       sodipodi:nodetypes="ccc"
       transform="translate(-3.6058383,-9.152003)" />
    <path
       style="fill:none;stroke:#000000;stroke-width:1px;stroke-linecap:butt;stroke-linejoin:miter;stroke-opacity:1"
       d="m 54.492188,62.726562 c 3.590593,2.567307 7.181234,5.134648 13.317458,7.031911 6.136224,1.897263 14.814984,3.12399 23.495043,4.350901"
       id="path73"
       inkscape:connector-curvature="0"
       inkscape:path-effect="#path-effect75"
       inkscape:original-d="m 54.492188,62.726562 c 3.591437,2.566127 7.182078,5.133467 10.77192,7.702022 8.681924,1.226004 17.360684,2.452732 26.040581,3.68079"
       transform="matrix(0.93440201,0,0,0.981395,-1.0035353,-7.273618)"
       sodipodi:nodetypes="ccc" />
    <path
       transform="translate(-4.8167763,-3.581691)"
       style="fill:none;stroke:#000000;stroke-width:1px;stroke-linecap:butt;stroke-linejoin:miter;stroke-opacity:1"
       d="m 54.007813,67.812499 c 8.774806,5.206413 17.550034,10.413077 27.673701,14.156084 10.123667,3.743008 21.592336,6.021509 33.061876,8.300183"
       id="path77"
       inkscape:connector-curvature="0"
       inkscape:path-effect="#path-effect79"
       inkscape:original-d="m 54.007813,67.812499 c 8.775505,5.205235 17.550733,10.411899 26.325686,15.619992 11.471911,2.277946 22.940581,4.556447 34.409891,6.836275"
       sodipodi:nodetypes="ccc" />
    <path
       transform="translate(-4.8167763,-3.581691)"
       style="fill:none;stroke:#000000;stroke-width:1px;stroke-linecap:butt;stroke-linejoin:miter;stroke-opacity:1"
       d="m 110.19531,17.195311 c -13.239545,0.888018 -26.4768,1.775883 -34.505279,9.427613 -8.02848,7.651729 -10.842486,22.061854 -11.338508,32.055546 -0.496022,9.993692 1.326526,15.557564 3.348448,19.66184 2.021921,4.104277 4.240757,6.742642 6.458952,9.380246"
       id="path81"
       inkscape:connector-curvature="0"
       inkscape:path-effect="#path-effect83"
       inkscape:original-d="m 110.19531,17.195311 c -13.239607,0.88709 -26.476862,1.774954 -39.718746,2.664063 -2.814238,14.41543 -5.628244,28.825555 -8.444882,43.245038 1.825017,5.567357 3.647566,11.131229 5.470735,16.701049 2.220554,2.638219 4.439389,5.276584 6.656506,7.915095"
       sodipodi:nodetypes="ccccc" />
    <path
       transform="translate(-4.8167763,-3.581691)"
       style="fill:none;stroke:#000000;stroke-width:1px;stroke-linecap:butt;stroke-linejoin:miter;stroke-opacity:1"
       d="m 110.19531,17.195311 c -13.659211,6.251798 -27.316503,12.502718 -32.875481,22.803274 -5.558978,10.300556 -3.016155,24.643402 0.846621,33.839301 3.862776,9.195898 9.042311,13.234139 14.220342,17.271207"
       id="path85"
       inkscape:connector-curvature="0"
       inkscape:path-effect="#path-effect87"
       inkscape:original-d="M 110.19531,17.195311 C 96.535894,23.44666 82.878602,29.69758 69.217085,35.950976 c 2.544907,14.347963 5.08773,28.690809 7.631102,43.043394 5.181902,4.038307 10.361437,8.076548 15.538605,12.114723"
       sodipodi:nodetypes="cccc" />
    <path
       style="fill:#800080;stroke-width:0.2421875"
       d="M 29.302948,65.291504 9.3664724,44.169656 l 0.0037,-2.733622 0.0037,-2.733621 6.7294686,6.78125 c 3.701208,3.729688 9.173799,9.560352 12.161312,12.957032 4.762095,5.414307 16.750355,17.921875 17.177767,17.921875 0.08564,0 -0.141176,-2.40846 -0.504045,-5.352135 -1.472353,-11.944046 -1.558847,-20.318423 -0.312434,-30.249428 1.137164,-9.060542 3.664045,-19.120296 5.69988,-22.691769 2.469196,-4.331723 8.946276,-6.804895 19.829686,-7.571657 5.645134,-0.397714 5.830424,-0.371327 3.332623,0.474577 -4.235457,1.434379 -7.466541,3.426887 -10.603506,6.538849 -7.952966,7.889579 -12.277013,21.135691 -13.795877,42.261719 -0.36822,5.1216 -0.303011,7.364995 0.359721,12.375556 0.333003,2.517663 0.605464,4.698401 0.605469,4.846087 1.2e-5,0.438602 3.457698,4.245666 4.925224,5.422889 0.747231,0.599414 2.580416,1.76312 4.073749,2.586015 l 2.715149,1.496171 -6.264332,-0.04305 -6.264335,-0.04305 z"
       id="path91"
       inkscape:connector-curvature="0" />
    <path
       style="fill:#ffffff;stroke-width:0.2421875"
       d="m 56.953286,58.247072 c -1.536999,-0.811078 -3.692683,-2.191827 -5.527062,-3.540169 -0.649469,-0.477386 -0.678289,-0.576053 -0.536432,-1.836521 0.305233,-2.712159 1.164526,-8.364397 1.312279,-8.63188 0.100234,-0.181458 0.961825,0.198555 2.508122,1.106233 1.29549,0.760454 2.916442,1.645404 3.602115,1.966557 l 1.246678,0.583912 -0.15262,1.579386 c -0.08394,0.868662 -0.265086,3.268644 -0.402543,5.333292 -0.137457,2.064649 -0.272933,3.884745 -0.301057,4.044659 -0.03215,0.182803 -0.681692,-0.04199 -1.74948,-0.605469 z"
       id="path93"
       inkscape:connector-curvature="0" />
    <path
       style="fill:#ffffff;stroke-width:0.2421875"
       d="m 59.239324,34.996827 c -1.522059,-0.905845 -3.061898,-1.841346 -3.421863,-2.07889 l -0.654481,-0.431898 0.489746,-1.251188 c 0.710113,-1.814175 2.582006,-5.731657 2.738762,-5.731657 0.114105,0 4.76464,2.594505 6.352549,3.544048 0.522094,0.312204 0.522093,0.312207 -0.640856,2.925094 -0.639622,1.437089 -1.300507,3.076073 -1.468632,3.642187 -0.168126,0.566113 -0.378169,1.029296 -0.466763,1.029296 -0.08859,0 -1.406402,-0.741146 -2.928462,-1.646992 z"
       id="path97"
       inkscape:connector-curvature="0" />
    <path
       style="fill:#ffffff;stroke-width:0.2421875"
       d="m 70.095187,18.144779 c -1.698231,-0.961092 -3.206577,-1.866324 -3.35188,-2.011627 -0.190792,-0.190792 0.04948,-0.479995 0.864844,-1.040982 1.327976,-0.913671 5.506441,-2.932037 6.118758,-2.955604 0.233597,-0.009 2.275935,0.887287 4.538529,1.99173 l 4.113808,2.008077 -1.691933,0.566531 c -0.930563,0.311591 -2.90084,1.165806 -4.378393,1.898254 -1.477554,0.732448 -2.785366,1.322574 -2.906251,1.311392 -0.120884,-0.01118 -1.60925,-0.806679 -3.307482,-1.767771 z"
       id="path101"
       inkscape:connector-curvature="0" />
    <path
       style="fill:#800080;stroke-width:0.17125243"
       d="m 90.828148,17.788524 c -3.742052,-1.095276 -4.526778,-1.384547 -4.110059,-1.515076 1.383237,-0.433269 9.602107,-1.459656 13.871451,-1.73229 1.26317,-0.08066 1.46402,-0.06181 1.11314,0.104469 -0.23548,0.11159 -2.154598,1.036945 -4.264721,2.056343 -2.110123,1.019398 -3.882585,1.85007 -3.938806,1.845937 -0.05622,-0.0041 -1.258173,-0.345855 -2.671005,-0.759383 z"
       id="path89"
       inkscape:connector-curvature="0" />
    <path
       style="fill:#800080;stroke-width:0.17125243"
       d="m 70.534735,18.373221 c -1.648304,-0.938277 -3.247374,-1.834841 -3.553488,-1.992364 -0.306113,-0.157523 -0.55657,-0.333758 -0.55657,-0.391632 0,-0.416182 4.984855,-3.14795 6.756861,-3.702851 l 0.863872,-0.270519 2.654412,1.326147 c 1.459927,0.729381 3.378976,1.65521 4.264553,2.0574 l 1.610139,0.731252 -0.751564,0.202375 c -1.769219,0.476402 -5.894177,2.308778 -7.548855,3.353331 -0.357506,0.225683 -0.670807,0.406393 -0.696226,0.401576 -0.02542,-0.0048 -1.394829,-0.776438 -3.043134,-1.714715 z"
       id="path92"
       inkscape:connector-curvature="0" />
    <path
       style="fill:#800080;stroke-width:0.17125243"
       d="m 91.770036,26.248265 c -3.218064,-0.709786 -6.092579,-1.404121 -6.319217,-1.526398 -0.262795,-0.141784 2.850166,-2.063199 6.319217,-3.900415 l 1.969403,-1.042999 2.025765,0.486632 c 1.11417,0.267647 2.062735,0.523602 2.107921,0.568788 0.06999,0.06998 -1.953278,2.586474 -4.04806,5.034885 l -0.599383,0.700568 z"
       id="path96"
       inkscape:connector-curvature="0" />
    <path
       style="fill:#800080;stroke-width:0.17125243"
       d="m 72.761017,31.243334 c -2.972436,-1.003287 -5.687169,-2.243615 -5.571334,-2.545474 0.499055,-1.300517 4.02241,-5.369038 5.744086,-6.632865 l 0.810382,-0.594875 2.120033,1.004399 c 1.166017,0.552419 3.108324,1.376858 4.316236,1.832086 l 2.196204,0.827687 -0.48368,0.349242 c -1.647381,1.189495 -3.966824,3.200899 -5.416182,4.696875 -0.923289,0.952986 -1.693925,1.731567 -1.712525,1.73018 -0.0186,-0.0014 -0.920049,-0.301652 -2.00322,-0.667255 z"
       id="path98"
       inkscape:connector-curvature="0" />
    <path
       style="fill:#800080;stroke-width:0.17125243"
       d="M 60.24921,35.629281 C 59.254518,35.045314 57.699556,34.111352 56.79374,33.55381 L 55.1468,32.540096 55.541855,31.49878 c 0.583501,-1.538035 1.934687,-4.533412 2.414407,-5.352378 l 0.41868,-0.714762 2.863869,1.629625 c 1.575128,0.896293 3.150273,1.775737 3.500322,1.954319 l 0.636454,0.324694 -1.001507,2.099865 c -0.550828,1.154926 -1.249207,2.812704 -1.551952,3.68395 -0.302745,0.871247 -0.598582,1.580229 -0.657417,1.575516 -0.05883,-0.0047 -0.92081,-0.486361 -1.915501,-1.070328 z"
       id="path100"
       inkscape:connector-curvature="0" />
    <path
       style="fill:#800080;stroke-width:0.17125243"
       d="m 80.467497,42.087039 c -3.320529,-0.451868 -5.128573,-0.762491 -7.486186,-1.286133 l -1.577856,-0.350452 0.398957,-1.059931 c 0.561392,-1.491483 1.386599,-3.094937 2.26179,-4.394869 1.325754,-1.969162 0.863403,-1.822584 3.86591,-1.225595 2.615043,0.519949 7.680875,1.225595 8.798548,1.225595 0.708764,0 0.725097,0.133488 0.13137,1.073731 -0.538647,0.853018 -2.876708,5.517709 -3.045473,6.076058 -0.06406,0.211925 -0.16907,0.377238 -0.233365,0.367363 -0.06429,-0.0099 -1.465457,-0.20147 -3.113695,-0.425767 z"
       id="path102"
       inkscape:connector-curvature="0" />
    <path
       style="fill:#800080;stroke-width:0.17125243"
       d="m 66.681556,49.563019 c -1.815923,-0.553669 -5.027546,-1.799488 -5.466639,-2.12056 -0.295347,-0.215963 -0.292776,-0.304237 0.06357,-2.183063 0.323756,-1.707005 1.097092,-4.976843 1.501873,-6.350257 l 0.133644,-0.453453 1.879228,0.849149 c 1.033575,0.467031 2.574847,1.088475 3.425049,1.380986 0.850201,0.292511 1.56762,0.547254 1.594263,0.566094 0.02664,0.01884 -0.143939,0.988594 -0.379073,2.155009 -0.31894,1.582146 -0.782511,5.491005 -0.782511,6.598186 0,0.121525 -0.45823,0.01866 -1.969402,-0.442091 z"
       id="path104"
       inkscape:connector-curvature="0" />
    <path
       style="fill:#800080;stroke-width:0.17125243"
       d="m 56.920167,58.2329 c -1.755045,-0.92439 -3.079117,-1.766491 -5.071245,-3.225275 -0.898978,-0.658298 -1.120713,-0.908944 -1.075559,-1.215796 0.03128,-0.212596 0.179941,-1.426898 0.330349,-2.698447 0.34139,-2.886116 0.934631,-6.701398 1.081777,-6.957184 0.07178,-0.124781 0.903467,0.267833 2.359347,1.113779 1.236667,0.718571 2.88153,1.61446 3.655252,1.990864 l 1.406767,0.684371 -0.105014,1.027515 c -0.05776,0.565133 -0.180868,1.721087 -0.273579,2.568786 -0.09271,0.8477 -0.218968,2.909151 -0.280573,4.581003 -0.0616,1.671851 -0.15768,3.038076 -0.213503,3.036055 -0.05582,-0.002 -0.87213,-0.409573 -1.814019,-0.905671 z"
       id="path106"
       inkscape:connector-curvature="0" />
    <path
       style="fill:#800080;stroke-width:0.17125243"
       d="M 79.097356,64.102353 C 77.449052,63.837196 75.061994,63.441132 73.792784,63.222211 L 71.48513,62.824173 71.110391,61.248052 c -0.422301,-1.77616 -1.02047,-5.876016 -1.191507,-8.166608 l -0.113693,-1.522612 0.407585,0.100325 c 0.968392,0.238367 4.859013,0.84529 7.728177,1.205569 l 3.106826,0.390122 0.05513,1.958998 c 0.0838,2.977947 0.68886,5.949104 1.732889,8.509403 l 0.366622,0.899075 -0.554072,-0.01893 c -0.304739,-0.01041 -1.902684,-0.23588 -3.550989,-0.501037 z"
       id="path108"
       inkscape:connector-curvature="0" />
    <path
       style="fill:#800080;stroke-width:0.17125243"
       d="M 75.757934,77.345051 C 70.487744,75.23078 62.111994,71.206996 61.82561,70.651839 61.325764,69.682886 60.443012,65.208094 60.166506,62.24161 c -0.111108,-1.192012 -0.09909,-1.260098 0.201532,-1.14216 1.711364,0.671381 6.366972,1.937568 9.155893,2.490132 l 0.9586,0.189925 0.817871,2.519251 c 1.3153,4.051458 2.80608,7.316618 4.649175,10.182796 0.408835,0.635775 0.687093,1.151983 0.618352,1.14713 -0.06874,-0.0049 -0.43324,-0.132488 -0.809995,-0.283633 z"
       id="path110"
       inkscape:connector-curvature="0" />
    <path
       style="fill:#800080;stroke-width:0.12109375"
       d="m 111.70234,88.073679 c -1.22866,-0.580054 -2.42445,-1.059877 -2.8457,-1.141871 -11.83553,-2.303694 -21.614605,-4.63238 -27.482677,-6.544434 -0.796134,-0.259412 -1.477287,-0.441216 -1.513672,-0.404009 -0.135308,0.138367 4.010929,4.03459 5.90408,5.548071 1.078773,0.862426 1.960194,1.59807 1.958713,1.634765 -0.0015,0.0367 -0.10559,0.200614 -0.231354,0.364264 l -0.228663,0.297543 -0.896403,-0.68659 c -2.913594,-2.231632 -6.107218,-5.18571 -7.582669,-7.013912 l -0.646858,-0.80151 -1.835564,-0.68552 c -3.085052,-1.152163 -6.872178,-2.82005 -10.493765,-4.621557 -1.898144,-0.944204 -3.467505,-1.701338 -3.487467,-1.682519 -0.06725,0.06339 1.0554,2.465436 1.682438,3.599791 1.187337,2.147974 2.636666,4.239624 4.519095,6.521894 0.571912,0.69339 1.03984,1.292621 1.03984,1.331625 0,0.039 -0.128489,0.191624 -0.28553,0.339157 l -0.285531,0.268242 -0.839879,-1.00397 c -3.1893,-3.812399 -5.6018,-7.730746 -6.819181,-11.07561 l -0.272027,-0.747422 -1.773341,-0.9785 c -0.975336,-0.538175 -3.489843,-1.978706 -5.587792,-3.20118 l -3.814453,-2.22268 -0.03786,0.480011 c -0.09436,1.196194 1.159134,11.036792 1.460707,11.467348 0.479658,0.684808 2.720585,3.066606 3.784188,4.022072 1.402533,1.259938 2.416143,1.912613 5.509766,3.547803 1.232129,0.651262 2.536181,1.38199 2.897896,1.623839 0.673569,0.450362 1.44171,1.286967 1.30613,1.422548 -0.04164,0.04164 -1.099948,0.01519 -2.351786,-0.05879 C 58.4272,87.434666 51.991642,87.270366 50.792183,87.374875 l -1.150391,0.100233 -0.06055,0.380453 c -0.05825,0.366044 -0.841378,-0.447253 -20.676758,-21.47338 L 8.288276,44.528348 v -3.562753 c 0,-3.248423 0.017855,-3.562754 0.202379,-3.562754 0.1113085,0 0.2904994,-0.07975 0.398202,-0.177217 0.1761047,-0.159372 0.6160284,0.233978 4.36891,3.906385 7.090683,6.938635 9.055905,9.007133 15.326867,16.132329 2.138485,2.42979 4.664834,5.262429 5.614108,6.294754 2.060219,2.240461 9.794314,10.171875 9.918817,10.171875 0.04803,0 -0.0352,-0.967236 -0.184944,-2.149414 -0.888416,-7.013783 -1.179258,-11.22663 -1.180839,-17.104493 -0.0013,-4.659741 0.103898,-6.996521 0.482237,-10.716797 1.01537,-9.984313 3.509276,-20.905431 5.834681,-25.550781 1.380927,-2.75861 3.512023,-4.563486 7.140791,-6.047708 5.642182,-2.3077374 13.251565,-3.1463024 25.885459,-2.8526143 6.304812,0.1465619 9.326078,0.4395216 13.804661,1.3385803 2.771393,0.556347 8.294075,2.035587 9.949285,2.664896 0.30226,0.114919 0.28444,0.141332 -1.06704,1.581384 -4.43136,4.721798 -8.596743,9.599249 -11.516484,13.485226 -1.919829,2.555161 -4.449745,6.275545 -4.449745,6.543599 0,0.08747 -0.05049,0.177196 -0.112198,0.199398 -0.316537,0.113878 -2.882459,4.940373 -3.916292,7.366536 -0.691522,1.62284 -1.466106,3.916404 -1.854074,5.489962 -0.330468,1.340349 -0.790232,4.200214 -0.69898,4.347864 0.03123,0.05052 0.141127,0.09186 0.244225,0.09186 0.121178,0 0.161463,0.06772 0.113947,0.191544 -0.04043,0.10535 -0.0735,0.296072 -0.0735,0.423829 0,0.127755 -0.07546,0.232283 -0.167688,0.232283 -0.4366,0 -0.310223,3.329372 0.227627,5.996727 1.809833,8.975507 9.223208,17.059845 22.342402,24.364553 1.79588,0.999941 6.86707,3.549398 8.44901,4.247611 l 0.88066,0.388688 -0.19977,0.392812 c -0.10987,0.216047 -0.20646,0.398392 -0.21464,0.405214 -0.008,0.0068 -0.96848,-0.437801 -2.13401,-0.988049 z M 62.291765,86.641736 c -0.09752,-0.09205 -1.185422,-0.697219 -2.417551,-1.34483 -3.273388,-1.720502 -4.371977,-2.489956 -6.30718,-4.417562 -1.867428,-1.860094 -3.243009,-3.44172 -3.313982,-3.810375 -0.0962,-0.499712 -0.918884,-6.834315 -1.109749,-8.545033 -0.317063,-2.8418 -0.08431,-8.033094 0.692223,-15.439454 1.423746,-13.579247 4.517656,-23.827899 9.321865,-30.878907 4.106714,-6.02731 9.429555,-9.853445 16.27737,-11.700407 l 1.332032,-0.35927 -3.148438,0.06448 c -12.051584,0.246832 -20.108877,2.730273 -23.008346,7.091698 -2.95223,4.440789 -6.135102,18.921068 -6.851816,31.171922 -0.161397,2.75877 -0.08047,11.855749 0.126111,14.176887 0.271394,3.049309 0.517616,5.338656 0.987418,9.18091 0.267243,2.185633 0.468976,4.056089 0.448296,4.156567 C 45.297048,76.09997 43.631756,74.506594 41.04022,71.893393 36.052705,66.864185 33.807014,64.48453 30.093286,60.293435 23.764492,53.151131 22.411101,51.648255 20.387663,49.515811 18.014768,47.015084 9.3932543,38.492685 9.2363392,38.492685 c -0.055224,0 -0.100407,1.271133 -0.100407,2.82474 v 2.824739 L 19.761909,55.403888 c 5.844287,6.193949 14.874053,15.76496 20.066146,21.268917 8.744071,9.269282 9.462873,10.00079 9.748047,9.920373 0.609634,-0.171914 9.677788,-0.03025 12.655116,0.197703 0.207069,0.01585 0.214908,-0.0035 0.06055,-0.149145 z M 104.61249,84.469072 C 94.579461,78.883352 88.088787,73.124204 84.289174,66.436271 c -0.19572,-0.344499 -0.433278,-0.597123 -0.594163,-0.631847 -0.147434,-0.03182 -1.412398,-0.22582 -2.811031,-0.431113 -1.398633,-0.205293 -4.004967,-0.618834 -5.791855,-0.91898 -1.786887,-0.300147 -3.294339,-0.529002 -3.349895,-0.508566 -0.128902,0.04742 0.565848,2.343992 1.348337,4.457077 0.829374,2.239703 2.666345,5.924717 3.863357,7.75 1.66921,2.545326 1.368243,2.306066 3.968255,3.154641 5.553518,1.812519 12.246303,3.496959 21.637581,5.445746 1.86485,0.386974 3.49697,0.708144 3.62695,0.713711 0.12998,0.0056 -0.57842,-0.443475 -1.57422,-0.997868 z M 76.298636,76.788584 c -2.154072,-3.330048 -3.872884,-7.148142 -5.222855,-11.60182 -0.239613,-0.790508 -0.458076,-1.459702 -0.485471,-1.487098 -0.0274,-0.02739 -0.689113,-0.179695 -1.470484,-0.338444 -2.361089,-0.479697 -5.201095,-1.227436 -7.233772,-1.904565 l -1.923708,-0.640829 0.08078,1.280811 c 0.182708,2.897167 1.204518,7.985705 1.752602,8.727828 0.247946,0.335727 5.823783,3.197357 8.734741,4.482844 1.799814,0.794801 6.288192,2.644312 6.444658,2.655628 0.04798,0.0035 -0.256439,-0.52499 -0.676486,-1.174355 z m -15.75371,-6.78125 c -0.57168,-1.481689 -1.185417,-5.106946 -1.464088,-8.64816 L 59.007776,60.43074 57.412675,59.634259 C 55.63842,58.74832 53.87764,57.673027 51.892592,56.263193 c -0.726757,-0.516162 -1.345354,-0.938476 -1.37466,-0.938476 -0.02931,0 -0.08944,0.504052 -0.133628,1.120117 -0.04419,0.616064 -0.160424,2.237207 -0.258299,3.602539 -0.09788,1.365332 -0.178748,2.848341 -0.179716,3.295574 l -0.0018,0.813151 2.088867,1.237718 c 3.189101,1.88964 8.346556,4.825432 8.477082,4.825432 0.06392,0 0.07942,-0.09536 0.03445,-0.211914 z m 22.828589,-5.388672 c -0.05939,-0.149853 -0.273953,-0.670031 -0.476802,-1.15595 -0.973524,-2.332051 -1.567184,-5.268846 -1.674523,-8.283754 l -0.07201,-2.022711 -0.31474,-0.05978 c -0.173106,-0.03288 -0.668937,-0.0945 -1.101847,-0.13693 -1.737147,-0.170258 -6.15603,-0.80645 -8.001952,-1.152049 -1.077496,-0.201731 -1.969265,-0.351133 -1.98171,-0.332003 -0.06313,0.09704 0.192327,3.589804 0.360106,4.923589 0.269852,2.145236 1.16402,6.554554 1.329201,6.554554 0.02735,0 0.855797,0.142915 1.840989,0.317589 1.713805,0.303856 9.744186,1.590141 10.052908,1.610248 0.105614,0.0069 0.117251,-0.06885 0.04038,-0.262798 z M 70.207892,61.9546 c -0.625699,-2.630869 -1.069322,-5.6292 -1.267597,-8.567383 -0.07865,-1.165528 -0.150355,-2.130469 -0.159339,-2.144314 -0.009,-0.01385 -0.861932,-0.267872 -1.895441,-0.564502 -1.878218,-0.53907 -3.278698,-1.040688 -5.171141,-1.852173 -0.553048,-0.23715 -1.030431,-0.406292 -1.060851,-0.375872 -0.246218,0.246218 -0.835587,8.324891 -0.757664,10.385538 l 0.0389,1.028755 1.210938,0.445972 c 1.946773,0.716972 8.060051,2.332469 9.041018,2.389183 0.185346,0.01072 0.187012,-0.04792 0.02117,-0.745204 z M 59.381014,51.38917 c 0.14044,-1.332032 0.287589,-2.6445 0.326998,-2.916597 l 0.07165,-0.494721 -2.053784,-1.102337 c -1.129581,-0.606285 -2.838434,-1.563828 -3.79745,-2.127873 -0.959018,-0.564045 -1.77963,-0.989705 -1.823585,-0.94591 -0.183444,0.182775 -1.214785,7.24068 -1.388735,9.50371 l -0.07782,1.012409 1.409883,1.018081 c 1.921241,1.387334 3.731395,2.511487 5.464713,3.393731 l 1.453125,0.739629 0.07983,-2.829123 c 0.04391,-1.556018 0.194734,-3.918968 0.335175,-5.250999 z m 21.927509,0.635742 c 0.0052,-1.101228 0.863404,-4.912309 1.584549,-7.036543 0.268116,-0.789777 0.470677,-1.450698 0.450133,-1.468715 -0.02054,-0.01802 -1.208932,-0.180029 -2.640865,-0.360027 -3.031545,-0.381072 -6.764362,-1.023937 -8.499628,-1.463804 -0.669188,-0.16963 -1.230654,-0.292202 -1.2477,-0.27238 -0.09211,0.107098 -0.685776,2.872993 -0.843176,3.928346 -0.192562,1.291115 -0.464342,5.013133 -0.372746,5.10473 0.177888,0.177888 4.29323,0.882187 7.935906,1.358151 2.992827,0.391053 3.632499,0.428065 3.633527,0.210242 z M 68.885687,48.694834 c 0.102042,-1.890555 0.468429,-4.50866 0.867289,-6.197424 0.164047,-0.694569 0.256238,-1.297446 0.20487,-1.339729 -0.05137,-0.04228 -0.42035,-0.174409 -0.81996,-0.293615 -1.125394,-0.335715 -4.000179,-1.493873 -5.189384,-2.090635 -0.589707,-0.295925 -1.088038,-0.521023 -1.107401,-0.500216 -0.29522,0.317222 -1.998137,7.895987 -1.998137,8.892624 0,0.257037 0.129629,0.360313 0.87793,0.699458 1.898059,0.860236 6.22093,2.346404 6.885944,2.367329 0.165861,0.0052 0.208155,-0.228028 0.278849,-1.537792 z m -8.661192,-3.390625 c 0.255473,-1.495398 1.203933,-5.529698 1.628946,-6.928756 l 0.164365,-0.541061 -1.828632,-1.041956 c -1.005748,-0.573077 -2.639644,-1.542051 -3.630882,-2.153276 -0.991237,-0.611226 -1.817769,-1.111319 -1.836736,-1.111319 -0.17599,0 -1.80806,5.977658 -2.231685,8.173829 -0.07708,0.399609 -0.167314,0.821923 -0.200516,0.938476 -0.0332,0.116553 -0.0095,0.211914 0.05271,0.211914 0.06219,0 1.005855,0.525602 2.097028,1.168004 1.775905,1.045521 5.274935,2.941922 5.437763,2.947153 0.03475,0.0011 0.191192,-0.747237 0.347639,-1.663008 z m 23.794508,-3.269986 c 0.403815,-1.014495 1.977251,-4.164758 2.792573,-5.591163 0.434974,-0.760986 0.775888,-1.398584 0.757588,-1.416883 -0.0183,-0.0183 -1.039523,-0.147565 -2.269385,-0.287255 -3.333213,-0.378594 -5.389528,-0.687665 -7.740864,-1.163479 -1.162769,-0.235297 -2.152467,-0.451509 -2.199329,-0.480471 -0.215723,-0.133324 -1.857066,2.35292 -2.803952,4.247322 -0.531998,1.064347 -1.298607,2.921317 -1.298607,3.145635 0,0.269455 10.18556,2.025611 12.230469,2.108731 0.252436,0.01026 0.340744,-0.08319 0.531507,-0.562437 z m -11.9221,-5.785147 c 0.438529,-0.80177 1.341937,-2.217624 2.036982,-3.192434 0.139489,-0.195634 -0.0058,-0.266052 -1.733676,-0.840179 -1.037259,-0.344659 -2.740537,-1.012088 -3.785061,-1.483177 -1.044525,-0.47109 -1.989737,-0.884773 -2.100468,-0.919296 -0.158666,-0.04947 -0.380276,0.305326 -1.045723,1.674175 -0.766908,1.57756 -2.070502,4.780567 -2.26453,5.564086 -0.0732,0.295602 -0.01858,0.344134 0.86908,0.77224 1.757836,0.847776 3.072742,1.392964 4.668521,1.935668 l 1.588501,0.540228 0.619181,-1.542968 c 0.34055,-0.848632 0.856787,-1.977386 1.147193,-2.508343 z m -9.262915,-0.783735 c 0.626318,-1.734118 1.305509,-3.325122 2.076132,-4.863338 l 0.646806,-1.291072 -1.721239,-0.934897 c -0.946682,-0.514195 -2.547379,-1.418125 -3.557106,-2.008734 -1.009727,-0.590608 -1.885955,-1.073834 -1.947174,-1.073834 -0.258606,0 -3.466067,7.143438 -3.286523,7.31952 0.429105,0.420833 7.158967,4.329428 7.255181,4.213692 0.04108,-0.04942 0.281348,-0.66202 0.533923,-1.361337 z m 26.527584,-3.118164 c 0.654168,-0.982373 1.694914,-2.477699 2.312768,-3.322946 l 1.123373,-1.536814 -0.689289,-0.138462 C 90.05339,26.936148 86.86216,26.205032 85.44234,25.821747 l -1.617421,-0.436627 -0.743907,0.518636 c -1.389435,0.968683 -3.166404,2.402151 -4.378915,3.532436 -1.587154,1.479523 -2.780917,2.741479 -2.684521,2.837875 0.326057,0.326058 9.511524,1.765434 11.780033,1.845948 0.352088,0.0125 0.445943,-0.09389 1.563963,-1.772838 z M 75.937461,30.924326 c 1.377374,-1.541056 3.530523,-3.455689 5.645074,-5.019736 0.581078,-0.4298 1.015815,-0.818124 0.966085,-0.862943 -0.04973,-0.04482 -0.471866,-0.205342 -0.938077,-0.356718 -1.464537,-0.475528 -4.044793,-1.54822 -6.014229,-2.500302 l -1.897043,-0.917084 -0.76702,0.58784 c -1.107087,0.848464 -2.793786,2.499929 -3.696953,3.619724 -0.864962,1.072427 -2.337646,3.22371 -2.337646,3.414812 0,0.122099 2.574834,1.30945 4.177734,1.926507 1.002211,0.385816 3.724702,1.256382 3.820948,1.221819 0.03687,-0.01324 0.50538,-0.514505 1.041127,-1.113919 z m -8.995967,-3.792003 c 0.507174,-0.75357 1.245053,-1.761675 1.639729,-2.240234 0.852791,-1.034038 2.722707,-2.881036 3.616258,-3.571937 l 0.63772,-0.49309 -0.819361,-0.448136 c -3.305783,-1.808046 -6.445666,-3.652245 -6.476942,-3.80421 -0.05045,-0.2451 -2.879314,2.51544 -4.029888,3.932548 -1.06562,1.312478 -2.747713,3.803245 -2.662051,3.941849 0.107382,0.173748 7.089354,4.143563 7.157445,4.069586 0.0082,-0.0089 0.429915,-0.632806 0.93709,-1.386376 z m 27.264385,-1.4377 c 0.398737,-0.511982 1.47812,-1.832125 2.398629,-2.933652 0.92051,-1.101528 1.62702,-2.018322 1.570025,-2.037321 -0.05699,-0.019 -1.082599,-0.273692 -2.279121,-0.565986 L 93.719918,19.62622 92.32734,20.360318 c -2.141633,1.128963 -4.263147,2.334052 -5.990551,3.402829 l -1.570627,0.971778 0.844065,0.218859 c 0.944663,0.244943 4.384105,1.043698 6.051097,1.405271 1.781916,0.3865 1.711821,0.404803 2.544555,-0.664432 z m -8.916398,-2.326505 c 1.555859,-0.97398 4.046812,-2.411464 6.005532,-3.465686 l 1.086814,-0.584944 -0.481345,-0.148912 c -0.26474,-0.0819 -1.35322,-0.404491 -2.418845,-0.716867 C 88.416012,18.139334 86.803825,17.61531 85.899,17.287211 l -1.645136,-0.596544 -1.485448,0.43168 c -1.625506,0.472382 -3.470946,1.143288 -4.790686,1.741644 -1.042627,0.472716 -3.330078,1.734978 -3.330078,1.837605 0,0.08068 2.422701,1.249478 3.814453,1.840229 1.466094,0.622308 4.710052,1.773538 5.01097,1.778314 0.158572,0.0025 0.975955,-0.425892 1.816406,-0.952021 z M 74.572045,19.675641 c 1.954165,-1.186258 4.275948,-2.227948 6.776224,-3.040216 l 1.554133,-0.504893 -1.311945,-0.579762 c -0.72157,-0.318869 -2.74869,-1.282325 -4.504713,-2.141013 l -3.192766,-1.561252 -1.408797,0.55822 c -1.671041,0.662133 -3.575491,1.64297 -4.848455,2.497072 -1.245014,0.835348 -1.456387,0.991922 -1.460832,1.082113 -0.0056,0.112898 7.181656,4.193073 7.421661,4.213265 0.05461,0.0046 0.493581,-0.230996 0.97549,-0.523534 z m 25.335003,-0.76987 c 0.522122,-0.582764 1.515242,-1.672608 2.206922,-2.421875 0.69169,-0.749268 1.20492,-1.362305 1.14052,-1.362305 -0.11271,0 -3.19049,1.42362 -6.537502,3.023907 -0.88247,0.42193 -1.604492,0.803109 -1.604492,0.847063 0,0.06667 3.280191,0.914612 3.70875,0.95873 0.07507,0.0077 0.563679,-0.462757 1.085802,-1.04552 z m -2.967016,-1.825334 c 1.75882,-0.85408 3.787048,-1.820182 4.507178,-2.146893 0.72013,-0.326711 1.2504,-0.613661 1.17838,-0.637667 -0.17835,-0.05945 -4.765879,0.302585 -7.513094,0.592914 -3.852261,0.407112 -9.082031,1.242054 -9.082031,1.449962 0,0.172399 6.857517,2.277425 7.458395,2.289476 0.139325,0.0028 1.692352,-0.693712 3.451172,-1.547792 z M 85.74173,15.43067 c 3.609185,-0.811607 10.199619,-1.652033 15.33862,-1.956011 0.78476,-0.04642 1.45114,-0.123727 1.48085,-0.171793 0.074,-0.119781 -3.67342,-1.114551 -6.146052,-1.631486 -6.674436,-1.395376 -12.30716,-1.7066048 -17.403225,-0.961591 -1.412696,0.206527 -3.405589,0.638163 -3.547006,0.768236 -0.158702,0.145973 8.300465,4.212232 8.823688,4.241483 0.0743,0.0042 0.728208,-0.125824 1.453125,-0.288838 z"
       id="path123"
       inkscape:connector-curvature="0" />
  </g>
  <g
     inkscape:groupmode="layer"
     id="layer3"
     inkscape:label="Layer 2">
    <path
       style="fill:none;stroke:#000000;stroke-width:1px;stroke-linecap:butt;stroke-linejoin:miter;stroke-opacity:1"
       d="m 114.09728,88.691744 c 0,0 -2.03255,-0.905681 -5.09646,-2.551039 C 102.05268,82.409461 89.800661,74.874322 83.920971,65.471254 81.685077,61.895511 80.370676,58.049649 80.61985,54.04013 c 0.03445,-0.554372 0.09726,-1.119914 0.186382,-1.69515 0.449998,-2.904517 1.570862,-6.056179 3.099638,-9.264828 1.29351,-2.714865 2.879044,-5.470527 4.597323,-8.151804 1.776506,-2.772137 3.694906,-5.464762 5.579175,-7.950581 1.59556,-2.10494 3.166646,-4.061592 4.606381,-5.792668 3.803171,-4.57277 6.689781,-7.571481 6.689781,-7.571481 0,0 -17.586321,-4.6343823 -30.682743,-2.108796 -3.432167,0.661878 -6.53387,1.903891 -8.951954,3.761549 -0.555104,0.42645 -1.095115,0.801615 -1.57103,1.304838 -1.949021,2.060854 -3.898424,4.818315 -5.698635,8.037597 -1.372692,2.454757 -2.658638,5.178032 -3.791524,8.06573 -1.287282,3.281249 -2.376941,6.774793 -3.171687,10.327915 -0.307247,1.373632 -0.570417,2.756168 -0.783889,4.138784 -0.401924,2.603187 -0.666243,5.198395 -0.828444,7.711083 -0.224882,3.483683 -0.253473,6.808747 -0.18035,9.776544 0.180225,7.314624 0.978324,12.458998 0.978324,12.458998 L 64.098677,87.312891 49.641792,87.475108 8.7457234,44.371434 V 37.347996 L 44.831662,75.129244 c 0,0 -6.751623,-47.661362 8.78341,-61.207422 13.005073,-11.3400144 51.763458,-0.308202 51.763458,-0.308202 0,0 -30.864807,12.611359 -35.048001,26.686767 -2.287986,7.698502 -1.004182,21.357723 3.547835,30.942996 1.383885,2.914073 3.032199,5.489246 4.691122,7.688848"
       id="path134"
       inkscape:connector-curvature="0"
       sodipodi:nodetypes="csssssssscsssssssssccccccacssc" />
    <path
       style="fill:none;stroke:#000000;stroke-width:1px;stroke-linecap:butt;stroke-linejoin:miter;stroke-opacity:1"
       d="m 105.37853,13.61362 c 0,0 -28.68147,1.230662 -37.064464,12.129003 -3.551017,4.616511 -9.983465,18.545884 -8.950533,30.543339 0.546666,6.349495 0.823798,11.063246 3.005732,16.147479"
       id="path136"
       inkscape:connector-curvature="0"
       sodipodi:nodetypes="cssc" />
    <path
       style="fill:none;stroke:#000000;stroke-width:1px;stroke-linecap:butt;stroke-linejoin:miter;stroke-opacity:1"
       d="m 74.136351,11.433932 c 0,0 5.834926,3.913747 9.056853,5.256735 5.031502,2.097269 15.7869,4.266703 15.7869,4.266703"
       id="path138"
       inkscape:connector-curvature="0"
       sodipodi:nodetypes="cac" />
    <path
       style="fill:none;stroke:#000000;stroke-width:1px;stroke-linecap:butt;stroke-linejoin:miter;stroke-opacity:1"
       d="m 65.222288,15.605808 c 0,0 7.563709,6.345802 12.027812,8.291047 5.18684,2.260179 16.570609,3.677014 16.570609,3.677014"
       id="path140"
       inkscape:connector-curvature="0"
       sodipodi:nodetypes="cac" />
    <path
       style="fill:none;stroke:#000000;stroke-width:1px;stroke-linecap:butt;stroke-linejoin:miter;stroke-opacity:1"
       d="m 58.394163,24.754245 c 0,0 8.25664,5.241036 12.838664,6.816684 5.657816,1.945587 17.676961,3.113004 17.676961,3.113004"
       id="path142"
       inkscape:connector-curvature="0"
       sodipodi:nodetypes="cac" />
    <path
       style="fill:none;stroke:#000000;stroke-width:1px;stroke-linecap:butt;stroke-linejoin:miter;stroke-opacity:1"
       d="m 55.1468,32.540096 c 0,0 7.718935,5.341866 12.058729,7.010291 5.436492,2.090049 17.098535,3.599148 17.098535,3.599148"
       id="path144"
       inkscape:connector-curvature="0"
       sodipodi:nodetypes="cac" />
    <path
       style="fill:none;stroke:#000000;stroke-width:1px;stroke-linecap:butt;stroke-linejoin:miter;stroke-opacity:1"
       d="m 51.69954,43.027913 c 0,0 9.109036,5.873313 14.232016,7.410106 4.935588,1.48058 15.376967,1.586893 15.376967,1.586893"
       id="path146"
       inkscape:connector-curvature="0"
       sodipodi:nodetypes="cac" />
    <path
       style="fill:none;stroke:#000000;stroke-width:1px;stroke-linecap:butt;stroke-linejoin:miter;stroke-opacity:1"
       d="m 50.107958,53.831715 c 0,0 8.921084,6.282765 13.985371,8.139025 6.357102,2.330128 19.999671,3.548711 19.999671,3.548711"
       id="path148"
       inkscape:connector-curvature="0"
       sodipodi:nodetypes="cac" />
    <path
       style="fill:none;stroke:#000000;stroke-width:1px;stroke-linecap:butt;stroke-linejoin:miter;stroke-opacity:1"
       d="m 49.88398,65.167747 c 0,0 9.585374,6.032192 14.785248,8.20885 5.100787,2.135181 13.023442,5.5531 19.78592,7.597892 8.328968,2.518457 25.471462,5.712586 25.471462,5.712586"
       id="path150"
       inkscape:connector-curvature="0"
       sodipodi:nodetypes="csac" />
    <path
       style="fill:#800080;stroke-width:0.03125"
       d="m 102.31378,14.249955 c -5.010234,0.447479 -9.999182,1.193016 -14.899959,2.333567 -0.555253,0.13872 -1.122355,0.256821 -1.665518,0.427301 -0.157788,0.184721 0.198015,0.219481 0.317623,0.268036 2.249271,0.72114 4.537019,1.313865 6.828416,1.883876 0.238422,-0.04705 0.443156,-0.218255 0.666237,-0.315867 2.820374,-1.528529 5.699119,-2.94488 8.610671,-4.292339 0.0974,-0.06032 0.32658,-0.111937 0.23548,-0.270944 -0.0305,-0.01493 -0.0558,-0.04268 -0.093,-0.03363 z"
       id="path180"
       inkscape:connector-curvature="0" />
    <path
       style="fill:#800080;stroke-width:0.03125"
       d="m 93.042047,20.083634 c -2.945288,1.649388 -5.858305,3.368844 -8.622559,5.309143 -0.106047,0.184051 0.178698,0.194489 0.294017,0.222885 2.865334,0.600619 5.756773,1.065865 8.653615,1.484634 0.181933,-0.04162 0.251806,-0.266481 0.381485,-0.386918 1.396098,-1.814457 2.809253,-3.616287 4.270737,-5.378768 0.08017,-0.211767 -0.232951,-0.179196 -0.360546,-0.227818 -1.516525,-0.334219 -3.033748,-0.671646 -4.544606,-1.03329 -0.02405,0.0034 -0.0481,0.0068 -0.07214,0.01013 z"
       id="path182"
       inkscape:connector-curvature="0" />
    <path
       style="fill:#800080;stroke-width:0.08838835"
       d="m 72.989918,12.368367 c -2.417235,0.669701 -4.812915,1.630348 -6.813844,3.165581 -0.200381,0.369747 0.472838,0.518179 0.628614,0.759502 2.049201,1.628567 4.132613,3.215466 6.293471,4.693817 0.708044,-0.313342 1.405956,-0.775268 2.135315,-1.101331 2.245557,-1.18912 4.661591,-1.98328 7.041709,-2.84438 0.202028,-0.277823 -0.388574,-0.369798 -0.540875,-0.521338 -2.578602,-1.336991 -5.035794,-2.885057 -7.479505,-4.451542 -0.421391,0.03432 -0.845886,0.211064 -1.264885,0.299691 z"
       id="path184"
       inkscape:connector-curvature="0" />
    <path
       style="fill:#800080;stroke-width:0.08838835"
       d="m 73.074204,22.134934 c -2.339772,1.451878 -4.310024,3.463588 -5.712012,5.833606 -0.09941,0.386287 -1.003338,1.013223 -0.333088,1.234781 2.45333,1.261738 5.045947,2.348421 7.765911,2.844228 1.126726,-0.757711 1.992887,-1.84984 3.050338,-2.701125 1.292189,-1.183342 2.723303,-2.205779 4.073383,-3.313425 -0.01476,-0.332979 -0.607044,-0.236342 -0.833129,-0.393259 -2.57756,-0.656897 -5.056883,-1.656847 -7.282467,-3.118928 -0.244372,-0.113233 -0.457972,-0.377757 -0.728936,-0.385878 z"
       id="path186"
       inkscape:connector-curvature="0" />
    <path
       style="fill:#800080;stroke-width:0.08838835"
       d="m 75.243862,33.163107 c -1.790397,1.961689 -3.361151,4.192888 -4.284246,6.695763 -0.07556,0.548044 0.718156,0.505898 1.051511,0.633392 3.738286,0.816928 7.502539,1.541534 11.293683,2.06297 0.599706,-0.0013 0.666444,-0.802164 0.945514,-1.179087 1.08176,-2.131626 2.314067,-4.177421 3.544511,-6.225681 -0.07743,-0.328116 -0.598926,-0.140193 -0.852591,-0.239983 -3.882836,-0.431922 -7.765553,-1.035579 -11.605333,-1.778793 l -0.08374,0.02828 z"
       id="path188"
       inkscape:connector-curvature="0" />
    <path
       style="fill:#800080;stroke-width:0.08838835"
       d="m 58.576616,25.502151 c -0.523484,0.662716 -0.803547,1.518653 -1.21235,2.262757 -0.659215,1.427515 -1.400463,2.82882 -1.931133,4.309054 0.324102,0.452121 0.935625,0.679605 1.373017,1.032515 1.786655,1.14967 3.566904,2.358403 5.426498,3.361181 0.893659,-2.058133 1.719243,-4.173095 2.772614,-6.167991 0.177685,-0.41043 0.743944,-1.018646 -0.02244,-1.15732 -2.154922,-1.14444 -4.212888,-2.463483 -6.348375,-3.640369 z"
       id="path190"
       inkscape:connector-curvature="0" />
    <path
       style="fill:#800080;stroke-width:0.08838835"
       d="m 62.685293,37.964562 c -1.035959,3.080781 -1.933376,6.217399 -2.452776,9.430278 0.557801,0.457003 1.344333,0.682021 1.994952,1.042705 2.055953,0.988066 4.230365,1.852717 6.496371,2.134441 0.12933,-2.51036 0.10484,-5.056677 0.525324,-7.549435 0.07814,-0.720627 0.340955,-1.412614 0.413285,-2.12719 C 68.720087,40.462683 67.657152,40.24494 66.699388,39.811592 65.327291,39.29066 64.054407,38.51398 62.738982,37.904486 Z"
       id="path192"
       inkscape:connector-curvature="0" />
    <path
       style="fill:#800080;stroke-width:0.08838835"
       d="m 51.913136,43.830648 c -0.313796,0.160866 -0.197047,0.678002 -0.32572,0.969835 -0.469018,2.803864 -0.92729,5.621704 -1.10334,8.460788 0.141769,0.560416 0.832588,0.749403 1.228192,1.103019 2.387754,1.572824 4.767324,3.176984 7.267275,4.563157 0.325592,-0.08686 0.04262,-0.564499 0.08674,-0.789884 -0.32702,-3.296823 -0.352526,-6.634678 0.137612,-9.916028 0.02796,-0.511723 -0.76602,-0.554221 -1.082298,-0.862421 -2.022184,-1.116802 -3.991576,-2.328595 -5.99474,-3.47564 -0.06754,-0.02776 -0.139022,-0.0581 -0.21372,-0.05283 z"
       id="path194"
       inkscape:connector-curvature="0" />
    <path
       style="fill:#800080;stroke-width:0.08838835"
       d="m 69.874788,51.712403 c -0.296654,0.170085 -0.04007,0.664653 -0.09385,0.952196 0.262288,3.483162 0.778294,6.958827 1.663088,10.339588 0.09943,0.550075 0.815587,0.398081 1.210161,0.550528 3.373828,0.558873 6.76394,1.06704 10.169149,1.376407 0.313626,-0.163704 -0.184188,-0.576741 -0.212535,-0.818053 -1.674215,-3.118568 -2.654334,-6.643999 -2.416328,-10.193547 -0.01452,-0.472813 0.128249,-0.956819 0.07717,-1.418184 -3.370128,-0.225953 -6.763453,-0.329382 -10.119429,-0.774952 -0.09228,-0.0069 -0.184734,-0.01678 -0.277422,-0.01398 z"
       id="path196"
       inkscape:connector-curvature="0" />
    <path
       style="fill:#800080;stroke-width:0.08838835"
       d="m 60.309166,60.768756 c -0.220872,0.259278 0.03868,0.701975 0.0085,1.023505 0.408702,3.290339 0.757005,6.612925 1.676192,9.809419 2.382518,1.236049 4.927431,2.196081 7.401634,3.258175 2.527087,1.025196 5.036786,2.111904 7.60505,3.024476 0.260873,-0.183022 -0.181028,-0.488501 -0.24044,-0.695886 C 74.34276,73.615297 72.488141,69.678151 71.217304,65.556587 71.0217,65.153965 71.036857,64.656781 70.809943,64.282366 70.012139,63.851525 69.045067,63.853274 68.18591,63.592084 c -2.658906,-0.564893 -5.225531,-1.468983 -7.62878,-2.737705 -0.08107,-0.02978 -0.156856,-0.09659 -0.247964,-0.08562 z"
       id="path198"
       inkscape:connector-curvature="0" />
    <path
       style="fill:#800080;stroke-width:0.125"
       d="m 72.858969,9.2936641 c -5.551826,0.074507 -11.341742,0.5535284 -16.329306,3.2063389 -4.512936,2.448472 -7.193307,7.160931 -8.889932,11.839559 -2.846023,8.087488 -3.539639,16.741798 -3.747803,25.255615 -0.17385,8.965766 0.40249,17.959315 1.580811,26.831787 C 33.400152,63.919953 21.464642,51.278701 9.4058444,38.757531 c -0.4025825,0.358702 -0.036247,1.443211 -0.1465585,2.071135 0.032301,1.150152 -0.00769,2.314906 0.06941,3.455965 13.4959311,14.224772 26.9918621,28.449543 40.4877931,42.674316 4.16418,0.06405 8.35529,-0.0374 12.527832,-0.156494 -0.0047,-0.52732 -1.111527,-0.921174 -1.532445,-1.392261 -3.525827,-2.725043 -7.135949,-5.352444 -10.566188,-8.194653 -1.196567,-9.233418 -1.385705,-18.633553 -0.298011,-27.886948 1.196935,-9.224526 4.17345,-18.268668 8.888344,-26.298355 2.298801,-3.763445 4.956813,-7.62894 9.025146,-9.64917 5.054551,-2.749481 10.931551,-2.949609 16.544677,-3.203613 C 84.394596,9.7148424 83.052063,9.9758586 82.544339,9.7984845 79.326227,9.4801251 76.093777,9.280746 72.858969,9.2936641 Z"
       id="path200"
       inkscape:connector-curvature="0" />
    <path
       style="fill:#483737;stroke-width:0.08838835"
       d="m 66.042587,29.199033 c -0.315532,0.01937 -0.833713,-0.07621 -0.830885,0.383592 -1.019076,2.245335 -2.070588,4.478594 -3.00883,6.759464 -2.192643,-1.193381 -4.287946,-2.585665 -6.340408,-4.014402 -0.228049,-0.12794 -0.415952,-0.297618 -0.222599,-0.551063 0.303531,-0.823593 0.690528,-1.614387 1.041499,-2.416006 -0.140839,-0.32225 -0.673302,-0.06555 -0.948106,-0.126267 -0.44552,0.0681 -0.425273,0.736729 -0.662565,1.063494 -3.339269,7.768693 -5.231617,16.138007 -5.69852,24.576089 -0.469094,7.4728 -0.138963,15.001857 0.819898,22.414747 4.006327,3.228375 8.14317,6.290392 12.211575,9.438046 -4.173541,0.176121 -8.360309,0.138569 -12.539407,0.20319 C 36.402426,72.720483 22.906385,58.542892 9.4737381,44.306681 9.1170666,43.890218 9.399324,43.229084 9.3167652,42.707653 9.3275932,41.402412 9.3384103,40.097172 9.3492305,38.791931 21.31641,51.267772 33.215201,63.809732 45.207968,76.260649 c 0.152938,0.268305 0.413312,0.0352 0.284674,-0.206469 -1.415476,-10.938623 -1.916437,-22.017224 -1.238898,-33.033161 0.302196,-4.594825 0.889039,-9.175434 1.964303,-13.657293 -0.175639,-0.255912 -0.665587,-0.121636 -0.97348,-0.149501 -0.318682,0.143942 -0.213656,0.659277 -0.350335,0.940712 -1.800356,8.187161 -2.160003,16.611518 -2.055831,24.969158 0.09986,6.060934 0.51971,12.129473 1.17201,18.144988 -0.07658,0.23514 -0.60222,-0.563798 -0.856954,-0.743359 C 31.562514,60.438505 20.0081,48.316314 8.4397973,36.207435 c -0.4000471,0.08875 -0.064578,0.939942 -0.1791132,1.305954 0.00565,2.384069 -0.063733,4.782224 -0.011647,7.157576 13.6882689,14.43269 27.3723209,28.869382 41.0581139,43.30442 3.349512,0.04733 6.726201,-0.03599 10.086255,-0.04589 1.947151,-0.04385 3.910061,0.0071 5.847989,-0.120011 0.126456,-0.296489 -0.382822,-0.459167 -0.525909,-0.664171 -4.418002,-3.516971 -8.963947,-6.875675 -13.425639,-10.333101 -0.455218,-2.324831 -0.562069,-4.705289 -0.759985,-7.065862 -0.07682,-1.194126 -0.166665,-2.386556 -0.194852,-3.581999 4.524782,2.602967 8.961822,5.432812 13.748385,7.559193 6.548688,2.767648 13.099679,5.581922 19.90293,7.675441 7.508498,2.239406 15.215793,3.711762 22.886245,5.271016 1.29902,0.301878 2.67502,0.361515 3.85952,1.032638 1.05122,0.448295 2.05623,1.08227 3.13688,1.439058 0.25414,-0.162003 0.39389,-0.554179 0.37686,-0.835719 -0.75588,-0.640935 -1.74467,-0.96199 -2.60087,-1.453787 -7.44064,-3.786519 -14.583449,-8.28913 -20.726301,-13.976721 -3.596439,-3.403932 -6.88746,-7.334727 -8.650289,-12.02034 -0.69582,-1.895109 -1.164373,-3.878026 -1.056996,-5.904705 -0.0532,-3.409918 1.088686,-6.693261 2.398397,-9.794706 2.444015,-5.612854 5.778418,-10.783879 9.348276,-15.738651 -0.04983,-0.36901 -0.617395,-0.155465 -0.867311,-0.219589 -0.584468,-0.112664 -0.69797,0.66362 -1.046016,0.979909 -0.922027,1.270335 -1.780129,2.628823 -2.696505,3.874717 -4.029966,-0.418367 -8.052185,-1.022991 -12.032209,-1.755855 -0.0341,-0.14406 0.350044,-0.390425 0.482663,-0.566788 0.816459,-0.845598 1.743459,-1.604298 2.556032,-2.434445 -0.386057,-0.224582 -0.989194,-0.02756 -1.453057,-0.09754 -1.070714,0.853339 -1.954118,1.971559 -3.096008,2.742801 -1.23213,-0.158694 -2.443434,-0.607649 -3.633073,-0.986428 -1.374481,-0.494435 -2.688581,-1.14105 -4.009239,-1.756373 -0.373577,8.51e-4 -0.747171,-0.0018 -1.120737,0.0016 z m -0.76235,0.212167 c -0.0013,-0.0025 -9.62e-4,-0.01083 0,0 z m 1.113141,0.647893 c 2.227084,1.052849 4.466875,2.143117 6.888232,2.687021 0.349257,0.10577 0.986234,0.12572 0.486843,0.521718 -1.584328,1.963634 -3.026863,4.095752 -3.879419,6.483596 -0.247082,0.115329 -0.602925,-0.16245 -0.881652,-0.191873 -1.9676,-0.640273 -3.873145,-1.532257 -5.661158,-2.559042 -0.300804,-0.174296 0.121753,-0.576976 0.129214,-0.826359 0.86704,-2.082221 1.745899,-4.179216 2.846642,-6.144408 z m 10.545144,3.443693 c 3.548792,0.671268 7.136693,1.100747 10.709319,1.607391 -0.769034,1.580946 -1.785319,3.039992 -2.597587,4.605365 -0.492818,0.891888 -0.964366,1.795241 -1.437375,2.697722 -1.364327,0.05962 -2.697254,-0.362821 -4.040316,-0.525427 -2.851255,-0.524744 -5.720091,-1.007353 -8.527058,-1.727095 -0.05793,-0.468554 0.299392,-0.928085 0.447121,-1.369329 0.964002,-2.047899 2.297586,-3.917059 3.821761,-5.5897 0.541378,0.100358 1.082757,0.200716 1.624135,0.301073 z M 55.097796,33.230889 c 2.215091,1.419831 4.424664,2.857905 6.679707,4.214846 -1.022195,3.074442 -1.925647,6.202858 -2.486612,9.395233 -2.345062,-1.314473 -4.695424,-2.631699 -6.949706,-4.097284 -0.331542,-0.237321 0.04904,-0.688763 0.04883,-1.003394 0.746722,-2.880523 1.595455,-5.750156 2.707776,-8.509401 z m 7.725694,4.785227 c 1.949524,1.033321 3.939092,2.004473 6.053341,2.656695 0.26288,0.135786 0.858499,0.172662 0.644633,0.604727 -0.71545,2.974858 -0.708702,6.052852 -0.889374,9.085325 -0.01682,0.299914 -0.446155,-0.0021 -0.628387,0.02641 -2.603086,-0.536985 -5.042213,-1.646169 -7.406494,-2.835677 -0.441926,-0.148715 -0.117605,-0.698293 -0.131524,-1.02358 0.542473,-2.900358 1.335479,-5.754348 2.318272,-8.532374 z m 7.84343,3.238605 c 3.935083,0.864478 7.896652,1.640291 11.887051,2.221228 0.391051,0.0065 0.614925,0.147288 0.308306,0.518798 -1.005457,2.358213 -1.910293,4.779138 -2.451922,7.284973 -0.257269,0.336485 -0.792994,0.07 -1.150862,0.130736 -3.157961,-0.157013 -6.322483,-0.309779 -9.453151,-0.765855 -0.08401,-3.143776 0.119947,-6.329665 0.860578,-9.38988 z m -18.733496,2.571202 c 2.353483,1.441496 4.758231,2.801292 7.153242,4.171689 -0.104063,1.59914 -0.298366,3.19705 -0.280664,4.80469 -0.05352,2.021463 0.06692,4.074933 0.230428,6.066559 -2.7445,-1.576714 -5.410555,-3.300856 -8.027419,-5.076664 -0.609593,-0.274621 -0.402694,-1.016767 -0.374431,-1.540879 0.301853,-2.740035 0.624718,-5.500258 1.19699,-8.186815 0.03587,-0.06352 0.04025,-0.203966 0.101854,-0.23858 z m 8.285027,4.83978 c 2.17857,0.928003 4.299398,2.080947 6.639517,2.584172 0.593171,0.141518 1.193275,0.250958 1.790694,0.372522 0.304951,2.579571 0.44006,5.187975 0.952882,7.743208 0.195376,1.232108 0.54896,2.43413 0.739444,3.665795 -2.93028,-0.63109 -5.893514,-1.296342 -8.558995,-2.720359 -0.497786,-0.302398 -1.186212,-0.471245 -1.567306,-0.85539 -0.401034,-3.583004 -0.556411,-7.224709 -0.03698,-10.802895 z m 9.651593,3.130364 c 2.479916,0.253856 4.974589,0.472401 7.46915,0.604724 0.934828,0.05238 1.868971,0.129436 2.80496,0.154345 -0.0097,2.383946 -0.143673,4.824798 0.605944,7.126656 0.470462,1.801636 1.287738,3.481667 2.12201,5.137055 C 79.858903,64.63343 76.866536,64.12935 73.87963,63.669799 73.127997,63.508205 72.316058,63.466485 71.611743,63.177621 70.632841,59.829306 70.20304,56.330293 69.869871,52.866049 c 0.0023,-0.338321 -0.106112,-0.781464 1.73e-4,-1.069982 z m -19.322003,3.084442 c 2.815316,1.770169 5.572111,3.636907 8.469916,5.273609 0.225823,0.27802 0.116674,0.758867 0.217864,1.105026 0.330195,3.329519 0.896438,6.648754 1.967504,9.825954 -3.685665,-1.955485 -7.288894,-4.104042 -10.847252,-6.29042 -0.227997,-1.872984 -0.05476,-3.770538 -0.05835,-5.65251 0.04548,-1.433657 0.05776,-2.869857 0.186788,-4.297393 z m 9.79954,6.011962 c 2.000265,0.932381 4.03578,1.816079 6.184484,2.353308 1.389254,0.376511 2.79584,0.683871 4.20201,0.989566 1.340606,4.699292 3.384399,9.20167 6.121929,13.25152 0.331945,0.38523 0.0899,0.332082 -0.262231,0.167282 -4.684747,-1.802275 -9.331465,-3.727666 -13.909014,-5.7789 -0.337244,-0.137114 -0.721088,-0.28898 -0.723228,-0.719542 -0.893085,-3.360416 -1.26757,-6.828147 -1.654174,-10.273593 z m 11.673994,3.606141 c 3.758625,0.601139 7.543268,1.134906 11.321823,1.523317 0.701842,0.32826 0.954586,1.163899 1.455594,1.714114 4.691098,6.259605 11.023222,11.052255 17.586868,15.197551 1.40041,0.882853 2.82316,1.729759 4.25667,2.557596 -9.057053,-1.888186 -18.227071,-3.562916 -26.949122,-6.701633 -1.217904,-0.435247 -1.693372,-1.757167 -2.422049,-2.709482 -2.358751,-3.5463 -4.15021,-7.485643 -5.291561,-11.580773 l 0.01675,-0.001 z"
       id="path235"
       inkscape:connector-curvature="0" />
    <path
       style="fill:#aa0000;stroke-width:0.08838835"
       d="m 72.387332,8.2580892 c -4.57265,0.045269 -9.210425,0.5206307 -13.540165,2.0643288 -3.173645,1.127718 -6.076585,3.103791 -8.073548,5.840041 -2.894444,3.824962 -4.524785,8.429975 -5.664105,13.04315 0.215261,0.161396 1.093662,0.300713 1.181868,-0.124794 1.209989,-4.745181 2.981254,-9.512224 6.213405,-13.264659 2.797192,-3.234871 6.97774,-4.851052 11.082001,-5.628129 3.501496,-0.699815 7.081012,-0.8460663 10.648224,-0.7800552 3.8214,0.010413 7.639703,0.319329 11.416441,0.8343672 -5.359937,-0.0097 -10.886235,0.135959 -15.925424,2.172035 -3.033487,1.184924 -5.685034,3.236278 -7.677199,5.804625 -2.639289,3.343979 -4.713158,7.102074 -6.479625,10.968311 0.162039,0.313499 0.85877,0.07167 1.169246,0.04402 0.607205,-1.195679 1.148615,-2.453272 1.824909,-3.598717 2.234678,1.077389 4.297229,2.497132 6.506925,3.633286 0.490712,0.207956 1.080097,-0.01885 1.601324,-0.07963 0.322454,-0.124226 0.265957,-0.57938 0.504608,-0.812931 1.44646,-2.347457 3.311608,-4.477982 5.647705,-5.983477 0.398909,-0.340659 0.792104,0.18892 1.152331,0.327832 2.415984,1.557844 5.163425,2.485556 7.917487,3.242919 -1.255679,1.035543 -2.598864,1.980131 -3.786888,3.090312 -0.105171,0.354066 0.480018,0.2034 0.660841,0.233746 0.584545,0.135407 1.010585,-0.204899 1.412971,-0.579098 1.02399,-0.822148 2.071514,-1.603903 3.132642,-2.377251 3.082605,0.655393 6.194984,1.154223 9.300974,1.676444 -0.203724,0.381202 -0.712101,0.734781 -0.667229,1.19963 0.250769,0.210877 0.623922,0.0294 0.914613,0.130511 0.668468,-0.472073 1.04575,-1.271702 1.578187,-1.88384 3.434938,-4.510959 7.070889,-8.878332 10.955759,-13.010377 0.39481,-0.443648 1.00999,-0.577376 1.47543,-0.89536 -0.3115,-0.324915 -0.95774,-0.292872 -1.39142,-0.484927 C 97.56419,10.916756 89.465417,9.435043 81.303866,8.6364748 78.340355,8.3672535 75.362783,8.2509979 72.387332,8.2580892 Z m 10.912163,3.0642448 c 6.135105,0.0084 12.245388,0.780745 18.246665,2.013079 -5.705761,0.557509 -11.385274,1.470395 -16.929817,2.93615 -0.466671,0.220398 -0.937087,0.07112 -1.360092,-0.167491 -2.544579,-1.234577 -5.06034,-2.67325 -7.376199,-4.225168 2.454062,-0.399251 4.93394,-0.549458 7.419443,-0.55657 z m -9.256263,0.914094 c 0.994558,0.231194 1.774921,0.999479 2.672278,1.472751 1.838346,1.134873 3.708568,2.218979 5.62069,3.224434 -2.78516,0.979379 -5.564689,2.006837 -8.16336,3.423688 -0.364909,0.143754 -0.739967,0.449263 -1.100671,0.508903 -2.357139,-1.63419 -4.709164,-3.362645 -6.86011,-5.222681 2.164012,-1.711796 4.811284,-2.670126 7.448272,-3.375848 0.125823,-0.02492 0.254508,-0.04049 0.382901,-0.03125 z m 28.225228,2.132541 c -1.23741,0.6754 -2.671973,1.288241 -3.96949,1.961946 -1.826014,0.856904 -3.568298,1.890203 -5.413137,2.702957 -2.085553,-0.420809 -4.148574,-1.033708 -6.194232,-1.642821 -0.270678,-0.089 -0.54606,-0.170164 -0.804158,-0.291883 2.481704,-0.766051 5.069886,-1.17257 7.622114,-1.64606 2.902511,-0.468119 5.829147,-0.894005 8.758903,-1.084139 z m 0.76511,0.934293 c -1.46187,1.596071 -2.81546,3.298732 -4.314797,4.862222 -0.298858,0.288714 -0.757521,-0.09227 -1.112326,-0.07361 -0.99024,-0.226187 -2.016166,-0.407565 -2.97529,-0.699792 2.763535,-1.473441 5.597243,-2.835334 8.448853,-4.144585 z m -37.003294,1.685939 c 1.974981,1.585491 4.009622,3.095121 6.074455,4.561149 -2.206945,1.45157 -4.090944,3.373379 -5.461088,5.634412 -0.269899,0.425948 -0.525744,0.860654 -0.799984,1.283875 -2.25688,-1.266464 -4.511886,-2.540757 -6.695244,-3.926548 1.697992,-2.845176 3.501915,-5.671773 5.882486,-7.997938 0.313321,-0.442482 0.680487,0.319291 0.999375,0.44505 z m 17.892771,0.703654 c 1.459054,0.279065 2.837916,0.890643 4.280668,1.248389 1.088133,0.320319 2.187077,0.600904 3.286375,0.879491 -2.748416,1.553006 -5.403246,3.268155 -8.049381,4.988935 -0.297299,0.242347 -0.665363,0.306672 -1.020437,0.134655 -2.672398,-0.667757 -5.326636,-1.520673 -7.656035,-3.030587 -0.131045,-0.129005 -0.734489,-0.315296 -0.370558,-0.458336 2.523161,-1.342375 5.164323,-2.455837 7.894011,-3.301789 0.545001,-0.157095 1.075133,-0.391309 1.635357,-0.460758 z m 11.595447,3.00693 c 0.769433,0.200174 1.689874,0.343186 2.368358,0.597485 -1.381943,1.831364 -2.834676,3.619104 -4.267155,5.414994 -0.297576,0.522 -0.916748,0.153676 -1.364841,0.154145 -2.539711,-0.425832 -5.097422,-0.785715 -7.602605,-1.370347 -0.252619,-0.09088 0.275242,-0.28573 0.352344,-0.402237 2.609933,-1.784522 5.337964,-3.396898 8.09444,-4.945432 0.806486,0.183798 1.612972,0.367595 2.419459,0.551392 z"
       id="path237"
       inkscape:connector-curvature="0" />
    <path
       style="fill:#ff2a2a;stroke-width:0.17677669"
       d="m 66.585547,29.148681 c -0.864576,-0.02089 -1.644787,0.187993 -1.791202,1.171112 -0.968487,1.907176 -1.654637,3.976444 -2.722819,5.819854 -2.219513,-1.159035 -4.358475,-2.529738 -6.294217,-4.111784 0.02825,-0.987747 0.889118,-1.883667 0.884574,-2.775602 -0.667372,-0.133397 -1.435456,0.03759 -1.575453,0.813795 -4.639048,10.60679 -6.313014,22.311821 -5.885,33.829208 0.130698,4.491539 0.307651,9.011127 0.937324,13.45545 3.959719,3.147802 7.992262,6.202207 12.010457,9.274563 -4.072389,0.134711 -8.146076,0.239428 -12.221761,0.25515 C 36.41979,72.635579 22.917339,58.38579 9.4148586,44.13603 9.4269475,42.459569 9.382794,40.777372 9.463196,39.105491 21.479982,51.4779 33.25734,64.088799 45.327459,76.408827 c 0.552193,0.116112 0.09339,-0.837515 0.14476,-1.097177 -0.845804,-6.847039 -1.362243,-13.738351 -1.31583,-20.642897 -0.04747,-6.271332 -0.07454,-12.566352 0.936434,-18.77074 0.261209,-2.178739 0.723183,-4.359581 1.150973,-6.483131 -0.403068,-0.331523 -1.513406,-0.333942 -1.361893,0.438598 -1.490561,6.657134 -2.009588,13.48364 -1.979697,20.294659 -0.08568,6.963146 0.04515,13.939444 0.827895,20.862573 -0.0083,0.572213 0.206367,1.449777 0.05125,1.880879 C 40.635269,70.073659 37.887293,66.826522 34.910787,63.828669 26.07978,54.60448 17.292603,45.336373 8.4004643,36.172102 c -0.4587371,0.17333 -0.07636,1.070533 -0.2243113,1.483247 -0.017461,2.350756 -0.045251,4.715113 0.014734,7.056932 13.57443,14.26633 27.051707,28.627045 40.713001,42.809271 0.730805,1.087905 2.192374,0.362428 3.280047,0.549532 4.400455,-0.09031 8.817344,-0.01339 13.207334,-0.274317 -0.04691,-0.610862 -1.027384,-0.889957 -1.402066,-1.344981 -4.193877,-3.222858 -8.454207,-6.395729 -12.597475,-9.662476 -0.545579,-3.392111 -0.896804,-6.880596 -0.943961,-10.325208 0.795911,0.08546 1.567011,0.864346 2.33225,1.203341 4.889865,2.932542 9.915395,5.652755 15.224232,7.754264 7.566352,3.264958 15.325419,6.133476 23.370558,7.976891 5.932794,1.486222 11.967953,2.539848 17.929583,3.871983 1.61945,0.399358 3.02364,1.506022 4.62555,1.855808 0.53499,-0.343761 0.41561,-1.092025 -0.2044,-1.260569 C 106.49712,84.210224 99.42264,80.11423 93.253682,74.826587 88.067214,70.34723 82.995857,64.925589 81.543548,58.000917 80.418223,52.809481 82.55529,47.593562 84.723366,42.946749 c 2.316053,-4.763243 5.222967,-9.236979 8.319299,-13.536355 -0.345736,-0.208718 -1.287983,-0.484538 -1.553011,0.145012 -1.100934,1.387712 -2.096086,2.890225 -3.100153,4.32585 -3.229535,-0.07742 -6.467108,-0.77283 -9.67901,-1.243041 -0.711858,-0.154608 -1.631288,-0.218769 -2.219925,-0.469829 0.842994,-0.974515 1.862171,-1.79929 2.801842,-2.694118 -0.446106,-0.427975 -1.508633,-0.380214 -1.988393,0.172634 -0.957622,0.669341 -1.640548,1.871046 -2.800461,2.16724 -2.595471,-0.508332 -4.978783,-1.726655 -7.438777,-2.631279 -0.157698,-0.03019 -0.318899,-0.04051 -0.47923,-0.03418 z m -0.159514,1.023372 c 2.379504,1.03847 4.753716,2.191977 7.29411,2.758338 0.263256,0.372961 -0.511766,0.814822 -0.653589,1.15837 -1.345465,1.670647 -2.316169,3.596095 -3.292121,5.483531 -0.650843,0.266269 -1.423166,-0.415556 -2.077001,-0.547552 -1.44871,-0.668637 -3.033357,-1.215337 -4.297664,-2.185582 0.733197,-2.319102 1.753602,-4.587606 3.003823,-6.673665 z m 12.718254,3.767553 c 2.735177,0.49666 5.676337,0.779048 8.311268,1.28094 -1.25578,2.357389 -2.563906,4.71512 -3.89254,7.017897 -1.440545,0.225695 -2.925349,-0.371561 -4.367675,-0.510718 -2.678642,-0.544386 -5.457234,-0.8702 -8.054687,-1.671714 0.550626,-1.950249 1.81975,-3.683161 2.994758,-5.332701 0.574857,-0.649454 1.129803,-1.752596 2.148199,-1.250429 0.95356,0.155575 1.907119,0.31115 2.860677,0.466725 z M 55.119576,33.371642 c 2.179591,1.320313 4.381882,2.724849 6.497579,4.090033 -0.749512,2.943534 -1.701495,5.840639 -2.308947,8.824295 -0.05748,0.661626 -0.821517,-0.08344 -1.116374,-0.151745 -2.003523,-1.14632 -4.055476,-2.245459 -5.957655,-3.566052 0.811371,-3.106233 1.710049,-6.217761 2.885397,-9.196531 z m 7.77783,4.882766 c 1.955786,0.760667 3.841806,1.816061 5.863322,2.471075 1.089091,0.183294 0.385133,1.411423 0.379971,2.098624 -0.366481,2.49199 -0.332443,5.065646 -0.692436,7.531218 -2.627174,-0.402133 -5.107425,-1.559147 -7.47883,-2.729681 -0.974087,-0.455893 -0.123657,-1.67364 -0.129264,-2.424892 0.588768,-2.319419 1.057856,-4.756235 1.963322,-6.950488 l 0.03902,-0.001 z m 8.05128,3.221686 c 3.91722,0.64188 7.81896,1.495844 11.746673,2.130297 0.39215,0.285797 -0.408324,1.213808 -0.440598,1.702255 -0.778498,1.91811 -1.308577,3.986519 -1.957282,5.90881 -3.467307,0.308785 -6.963718,-0.308328 -10.42499,-0.606978 -0.0014,-3.049626 0.0611,-6.163893 0.832093,-9.121609 0.0792,-0.02207 0.163245,-0.01304 0.244104,-0.01277 z m -18.996245,2.628517 c 2.448691,1.160612 4.732998,2.627066 7.095928,3.950545 -0.429941,3.522361 -0.156059,7.09083 -0.23858,10.63146 -2.711897,-1.720931 -5.555966,-3.313134 -8.066472,-5.308478 -0.05675,-2.627038 0.532333,-5.262132 0.903564,-7.865183 0.09483,-0.465364 0.155153,-0.968851 0.30556,-1.408344 z m 8.228748,4.720836 c 2.720799,0.98708 5.35579,2.34956 8.226677,2.837404 0.696625,3.322525 0.821849,6.7627 1.610671,10.082831 0.02598,0.417061 0.464913,1.376971 -0.348721,1.039255 -3.193202,-0.700201 -6.490814,-1.510868 -9.244868,-3.342531 -0.577393,-1.299981 -0.199068,-2.836828 -0.349324,-4.228478 0.0191,-2.111175 -0.101522,-4.353658 0.105565,-6.388481 z m 10.660119,3.136405 c 3.068579,0.298306 6.144762,0.514002 9.223116,0.682594 0.04561,3.372897 0.05947,6.900442 1.669712,9.967856 0.312966,0.7062 0.706453,1.444497 0.968818,2.13444 -3.604187,-0.32463 -7.209725,-0.823797 -10.755411,-1.544377 -0.723784,-0.497034 -0.563596,-1.640893 -0.852321,-2.386542 -0.571207,-2.962599 -0.953025,-5.956318 -1.262439,-8.955135 0.336175,0.03372 0.672349,0.06744 1.008525,0.101164 z m -20.262684,3.157812 c 2.637537,1.330556 5.000226,3.169495 7.593838,4.595452 1.286704,0.32838 0.89677,1.740721 1.134856,2.751829 0.369227,2.855708 0.943083,5.68449 1.730478,8.452481 -3.595304,-1.90088 -7.069153,-4.05419 -10.581397,-6.113642 -0.358575,-3.083871 -0.05625,-6.218601 0.06042,-9.315994 0.02323,-0.110361 0.0053,-0.288978 0.0618,-0.370126 z m 9.896043,5.986583 c 3.278265,1.422934 6.696117,2.544476 10.219556,3.194757 1.293889,4.747686 3.496346,9.207974 6.122965,13.350437 -4.967673,-1.891935 -9.868814,-3.961214 -14.711825,-6.14955 -0.79986,-3.418653 -1.353077,-6.904585 -1.643817,-10.399096 z m 11.812273,3.534845 c 3.73981,0.472773 7.472846,1.075274 11.228773,1.448048 4.454824,6.341965 10.452944,11.433265 16.922917,15.625749 1.88716,1.29429 3.86713,2.450588 5.79669,3.671569 C 97.303049,83.37954 88.195818,81.867231 79.602803,78.615083 78.263651,78.043178 77.7712,76.460422 76.932602,75.375162 74.88361,72.067249 73.10172,68.506618 72.207873,64.710144 c 0.01227,-0.02937 -0.03448,-0.152158 0.07907,-0.06905 z"
       id="path239"
       inkscape:connector-curvature="0" />
    <path
       style="fill:#ff2a2a;stroke-width:0.17677669"
       d="m 72.498233,8.2148789 c -6.369494,0.1069296 -13.181276,0.8317232 -18.495357,4.6715641 -4.877305,3.799661 -7.260588,9.855966 -8.772448,15.665006 -0.540117,0.794426 0.885065,1.066047 1.071709,0.355626 1.444756,-4.345009 2.813624,-8.874785 5.78641,-12.457948 3.626273,-4.573648 9.657811,-6.13024 15.212405,-6.7261431 5.735598,-0.5765952 11.52219,-0.1624351 17.239849,0.4412721 -6.246599,0.151069 -12.948122,0.449641 -18.320212,4.038588 -4.639899,3.397516 -7.562624,8.563283 -10.096835,13.607184 -0.107444,0.394488 -0.882773,1.327348 -0.164845,1.512058 1.175293,0.105803 1.342104,-1.487256 1.88625,-2.197888 0.351373,-0.879133 0.72485,-1.764922 1.620282,-0.93541 1.970614,0.980803 3.759272,2.374205 5.83881,3.111546 0.772599,0.07802 1.769045,-0.0839 1.960425,-0.977452 1.582259,-2.312334 3.513244,-4.486128 5.885077,-6.019039 2.564207,1.759967 5.532721,2.723422 8.445575,3.712657 -1.022993,1.082824 -2.471888,1.785582 -3.343565,2.98276 0.242801,0.521836 1.171208,0.443835 1.521821,0.01208 1.329345,-0.783936 2.420237,-2.054175 3.886095,-2.554625 2.925185,0.584698 5.871809,1.057351 8.805344,1.595479 -0.243646,0.346512 -0.821725,1.192986 0.0183,1.190135 0.937291,0.01208 1.346414,-1.190294 1.961461,-1.72219 3.650257,-4.553419 7.191716,-9.248027 11.406846,-13.298524 0.22825,-0.292848 1.13053,-0.481692 0.85013,-0.881592 C 95.560284,10.325422 84.069314,8.2590559 72.498233,8.2148789 Z M 83.306816,11.39168 c 5.972668,-0.0092 11.92493,0.775244 17.771234,1.903802 -5.540118,0.613118 -11.026897,1.606592 -16.455766,2.8633 -1.362888,0.225676 -2.552646,-0.860758 -3.757449,-1.3624 -1.644836,-0.893885 -3.233935,-1.884711 -4.832793,-2.857108 2.39546,-0.43842 4.839046,-0.542418 7.274774,-0.547594 z m -8.433835,1.329623 c 2.406067,1.335682 4.774607,2.800415 7.144608,4.181184 -3.002278,1.147668 -5.934278,2.465102 -8.864039,3.783781 -1.812198,-0.899907 -3.376808,-2.379223 -5.024671,-3.58836 -0.541753,-0.498228 -1.364568,-0.961582 -1.733585,-1.492935 2.21193,-1.662869 4.910061,-2.560022 7.530618,-3.371186 0.315689,0.162505 0.631379,0.325011 0.947069,0.487516 z m 22.641226,3.915328 c -1.616999,0.736924 -3.174248,1.752057 -4.863431,2.263571 -2.170763,-0.493584 -4.350943,-1.053451 -6.449241,-1.783304 3.796864,-1.143372 7.773854,-1.634204 11.695884,-2.222379 1.225631,-0.165523 2.456691,-0.272318 3.695431,-0.334324 -1.35955,0.692146 -2.719096,1.384291 -4.078643,2.076436 z m 5.033993,-1.019228 c -1.2719,1.58775 -2.52119,3.276275 -4.124904,4.53301 -1.139568,-0.115672 -2.553794,-0.418113 -3.461302,-0.807234 2.496226,-1.351687 5.036649,-2.628549 7.625916,-3.792412 z M 65.37365,16.51924 c 2.093267,1.756844 4.439432,3.287477 6.483423,5.130668 -2.483794,1.623969 -4.313026,3.994359 -5.932377,6.438883 -0.346273,0.529369 -0.989691,-0.380033 -1.425564,-0.44183 -1.75158,-1.022125 -3.548173,-2.008052 -5.194586,-3.184163 1.421445,-2.660394 3.291139,-5.125501 5.279822,-7.388714 0.231703,-0.197287 0.457359,-0.533188 0.789282,-0.554844 z m 20.883819,1.882741 c 1.64135,0.524283 3.431845,0.981974 5.006715,1.469111 -2.876164,1.601795 -5.530211,3.60583 -8.483554,5.058161 -2.867118,-0.601681 -5.702245,-1.665304 -8.190423,-3.199243 -0.203226,-0.415286 0.733991,-0.532251 0.932219,-0.752248 2.743278,-1.335748 5.637759,-2.598023 8.588314,-3.23545 0.715576,0.219889 1.431153,0.439779 2.146729,0.659669 z m 9.145775,2.342982 c 0.723045,0.201837 1.564317,0.335898 2.201768,0.669818 -1.315954,1.744682 -2.539346,3.629231 -4.099354,5.148275 -1.225964,0.692721 -2.685376,-0.136846 -3.971951,-0.200254 -1.540738,-0.335768 -3.330268,-0.471632 -4.723598,-0.996095 2.630489,-1.937059 5.506968,-3.506156 8.323006,-5.157598 0.75671,0.178618 1.513421,0.357236 2.270129,0.535854 z"
       id="path241"
       inkscape:connector-curvature="0" />
  </g>
  <g
     inkscape:groupmode="layer"
     id="layer4"
     inkscape:label="Layer 3"
     style="display:inline">
    <g
       aria-label="Valinorrel"
       transform="matrix(3.7432702,0,0,4.1611713,-35.402599,-343.64786)"
       style="font-style:normal;font-weight:normal;font-size:5.33333349px;line-height:4.25;font-family:sans-serif;letter-spacing:0px;word-spacing:0px;fill:#800080;fill-opacity:1;stroke:none"
       id="flowRoot215">
      <path
         d="m 15.504557,109.81889 -1.364583,-3.81771 h 0.835937 l 0.966146,2.82552 0.934896,-2.82552 h 0.817709 l -1.367188,3.81771 z"
         style="font-style:normal;font-variant:normal;font-weight:bold;font-stretch:normal;font-family:Arial;-inkscape-font-specification:'Arial Bold';fill:#800080"
         id="path80" />
      <path
         d="m 18.343099,107.89701 -0.664062,-0.11979 q 0.111979,-0.40104 0.385416,-0.59375 0.273438,-0.19271 0.8125,-0.19271 0.489584,0 0.729167,0.11719 0.239583,0.11458 0.335938,0.29427 0.09896,0.17708 0.09896,0.65365 l -0.0078,0.85416 q 0,0.36459 0.03385,0.53907 0.03646,0.17187 0.132812,0.36979 h -0.723958 q -0.02865,-0.0729 -0.07031,-0.21615 -0.01823,-0.0651 -0.02604,-0.0859 -0.1875,0.1823 -0.401042,0.27344 -0.213542,0.0911 -0.455729,0.0911 -0.427084,0 -0.67448,-0.23177 -0.244791,-0.23177 -0.244791,-0.58594 0,-0.23438 0.111979,-0.41667 0.111979,-0.18489 0.3125,-0.28125 0.203125,-0.099 0.583333,-0.17187 0.513021,-0.0964 0.710938,-0.17969 v -0.0729 q 0,-0.21093 -0.104167,-0.29948 -0.104166,-0.0911 -0.393229,-0.0911 -0.195313,0 -0.304688,0.0781 -0.109375,0.0755 -0.177083,0.26823 z m 0.979167,0.59375 q -0.140625,0.0469 -0.445313,0.11198 -0.304687,0.0651 -0.398437,0.12761 -0.143229,0.10156 -0.143229,0.25781 0,0.15364 0.114583,0.26562 0.114583,0.11198 0.291667,0.11198 0.197916,0 0.377604,-0.13021 0.132812,-0.099 0.174479,-0.24218 0.02865,-0.0938 0.02865,-0.35677 z"
         style="font-style:normal;font-variant:normal;font-weight:bold;font-stretch:normal;font-family:Arial;-inkscape-font-specification:'Arial Bold';fill:#800080"
         id="path82" />
      <path
         d="m 20.764974,109.81889 v -3.81771 h 0.731771 v 3.81771 z"
         style="font-style:normal;font-variant:normal;font-weight:bold;font-stretch:normal;font-family:Arial;-inkscape-font-specification:'Arial Bold';fill:#800080"
         id="path84" />
      <path
         d="m 22.244141,106.67826 v -0.67708 h 0.73177 v 0.67708 z m 0,3.14063 v -2.76563 h 0.73177 v 2.76563 z"
         style="font-style:normal;font-variant:normal;font-weight:bold;font-stretch:normal;font-family:Arial;-inkscape-font-specification:'Arial Bold';fill:#800080"
         id="path86" />
      <path
         d="m 26.238933,109.81889 h -0.731771 v -1.41146 q 0,-0.44792 -0.04688,-0.57813 -0.04688,-0.13281 -0.153646,-0.20573 -0.104167,-0.0729 -0.252604,-0.0729 -0.190104,0 -0.341146,0.10416 -0.151042,0.10417 -0.208333,0.27605 -0.05469,0.17187 -0.05469,0.63541 v 1.25261 h -0.731771 v -2.76563 h 0.679688 v 0.40625 q 0.361979,-0.46875 0.911458,-0.46875 0.242188,0 0.442709,0.0885 0.20052,0.0859 0.302083,0.22136 0.104167,0.13541 0.143229,0.30729 0.04167,0.17187 0.04167,0.49219 z"
         style="font-style:normal;font-variant:normal;font-weight:bold;font-stretch:normal;font-family:Arial;-inkscape-font-specification:'Arial Bold';fill:#800080"
         id="path88" />
      <path
         d="m 26.814454,108.39701 q 0,-0.36458 0.179687,-0.70573 0.179688,-0.34114 0.507813,-0.52083 0.330729,-0.17969 0.736979,-0.17969 0.627604,0 1.028646,0.40886 0.401042,0.40625 0.401042,1.02864 0,0.62761 -0.40625,1.04167 -0.403646,0.41146 -1.01823,0.41146 -0.380208,0 -0.726562,-0.17188 -0.34375,-0.17187 -0.523438,-0.5026 -0.179687,-0.33334 -0.179687,-0.8099 z m 0.75,0.0391 q 0,0.41146 0.195312,0.63021 0.195313,0.21875 0.481771,0.21875 0.286458,0 0.479167,-0.21875 0.195312,-0.21875 0.195312,-0.63541 0,-0.40625 -0.195312,-0.625 -0.192709,-0.21875 -0.479167,-0.21875 -0.286458,0 -0.481771,0.21875 -0.195312,0.21875 -0.195312,0.6302 z"
         style="font-style:normal;font-variant:normal;font-weight:bold;font-stretch:normal;font-family:Arial;-inkscape-font-specification:'Arial Bold';fill:#800080"
         id="path90" />
      <path
         d="m 30.944661,109.81889 h -0.73177 v -2.76563 h 0.679687 v 0.39323 q 0.174479,-0.27864 0.3125,-0.36719 0.140625,-0.0885 0.317709,-0.0885 0.25,0 0.48177,0.13802 l -0.226562,0.63802 q -0.184896,-0.11979 -0.34375,-0.11979 -0.153646,0 -0.260417,0.0859 -0.106771,0.0833 -0.169271,0.30469 -0.0599,0.22135 -0.0599,0.92708 z"
         style="font-style:normal;font-variant:normal;font-weight:bold;font-stretch:normal;font-family:Arial;-inkscape-font-specification:'Arial Bold';fill:#800080"
         id="path94" />
      <path
         d="m 33.017579,109.81889 h -0.73177 v -2.76563 h 0.679687 v 0.39323 q 0.174479,-0.27864 0.3125,-0.36719 0.140625,-0.0885 0.317708,-0.0885 0.25,0 0.481771,0.13802 l -0.226562,0.63802 q -0.184896,-0.11979 -0.34375,-0.11979 -0.153646,0 -0.260417,0.0859 -0.106771,0.0833 -0.169271,0.30469 -0.0599,0.22135 -0.0599,0.92708 z"
         style="font-style:normal;font-variant:normal;font-weight:bold;font-stretch:normal;font-family:Arial;-inkscape-font-specification:'Arial Bold';fill:#800080"
         id="path99" />
      <path
         d="m 35.991537,108.93868 0.729167,0.12239 q -0.140625,0.40105 -0.445313,0.61198 -0.302083,0.20834 -0.757812,0.20834 -0.721354,0 -1.067709,-0.47136 -0.273437,-0.3776 -0.273437,-0.95312 0,-0.6875 0.359375,-1.07552 0.359375,-0.39063 0.908854,-0.39063 0.617188,0 0.973958,0.40886 0.356771,0.40625 0.341146,1.24739 h -1.833333 q 0.0078,0.32552 0.177083,0.50781 0.169271,0.17969 0.421875,0.17969 0.171875,0 0.289063,-0.0938 0.117187,-0.0938 0.177083,-0.30208 z m 0.04167,-0.73958 q -0.0078,-0.31771 -0.164063,-0.48178 -0.15625,-0.16666 -0.380208,-0.16666 -0.239583,0 -0.395833,0.17448 -0.15625,0.17448 -0.153646,0.47396 z"
         style="font-style:normal;font-variant:normal;font-weight:bold;font-stretch:normal;font-family:Arial;-inkscape-font-specification:'Arial Bold';fill:#800080"
         id="path103" />
      <path
         d="m 37.358725,109.81889 v -3.81771 h 0.73177 v 3.81771 z"
         style="font-style:normal;font-variant:normal;font-weight:bold;font-stretch:normal;font-family:Arial;-inkscape-font-specification:'Arial Bold';fill:#800080"
         id="path105" />
    </g>
  </g>
</svg>
